<svg version="1.1" xmlns="http://www.w3.org/2000/svg" xmlns:xlink="http://www.w3.org/1999/xlink" width="62.00178" height="26.57177" viewBox="0,0,62.00178,26.57177"><g transform="translate(-231.49824,-303.92822)"><g data-paper-data="{&quot;isPaintingLayer&quot;:true}" fill="#0009c1" fill-rule="nonzero" stroke="none" stroke-width="0.5" stroke-linecap="butt" stroke-linejoin="miter" stroke-miterlimit="10" stroke-dasharray="" stroke-dashoffset="0" style="mix-blend-mode: normal"><g><path d="M235.65105,305.03538c1.83285,0 2.85658,0.80912 3.42838,1.71298c1.97909,0.31637 3.49135,2.03137 3.49135,4.09959v1.66074c0.59046,0.44285 0.99723,0.91194 1.26696,1.38395c0.22352,0 0.44704,0 0.67056,0c1.34381,0.03097 2.66064,0.38621 3.98652,0.60719c1.50407,0.25068 3.14098,0.1937 4.48054,0.92215c1.14177,0.62089 2.57912,1.14242 3.13612,2.31668c0.14571,0.30719 0.28985,0.628 0.42541,0.9581c0.936,0.76121 1.53399,1.922 1.53409,3.22247c1.00844,0.75747 1.66074,1.96344 1.66074,3.32178c0,2.29299 -1.85884,4.15184 -4.15184,4.15184h-1.66074c-1.0209,0.49398 -2.21579,0.22894 -3.38415,0.07958c-1.31934,0.05054 -2.65329,0.08965 -3.93465,-0.00949c-2.53814,0.09831 -5.13411,0.23394 -7.57941,-0.06413c-0.74007,0.68356 -1.72941,1.1012 -2.8163,1.1012c-2.29299,0 -4.15184,-1.85884 -4.15184,-4.15184v-0.14162c-0.3521,-0.60995 -0.55358,-1.31779 -0.55358,-2.07269v-1.66074c0,-0.6919 -0.01275,-3.55079 0.05361,-3.98652c0.08786,-0.57687 0.45765,-1.08515 0.55358,-1.66074c0.08336,-0.50012 0.1406,-1.01262 0.20262,-1.52556c-0.02285,-1.33014 -0.17246,-2.60261 -0.59675,-3.69298l-0.21306,-2.42008c0,0 0,-4.15184 4.15184,-4.15184z"/><path d="M269.41934,303.92823c1.83285,0 2.85658,0.80912 3.42838,1.71298c1.97909,0.31637 3.49135,2.03137 3.49135,4.09959v1.66074c0.59046,0.44285 0.99723,0.91194 1.26696,1.38395c0.22352,0 0.44704,0 0.67056,0c1.34381,0.03097 2.66064,0.38621 3.98652,0.60719c1.50407,0.25068 3.14098,0.1937 4.48054,0.92215c1.14177,0.62089 2.57912,1.14242 3.13612,2.31668c0.14571,0.30719 0.28985,0.628 0.42541,0.9581c0.936,0.76121 1.53399,1.922 1.53409,3.22247c1.00844,0.75747 1.66074,1.96344 1.66074,3.32178c0,2.29299 -1.85884,4.15184 -4.15184,4.15184h-1.66074c-1.0209,0.49398 -2.21579,0.22894 -3.38415,0.07958c-1.31934,0.05054 -2.65329,0.08965 -3.93465,-0.00949c-2.53814,0.09831 -5.13411,0.23394 -7.57941,-0.06413c-0.74007,0.68356 -1.72941,1.1012 -2.8163,1.1012c-2.29299,0 -4.15184,-1.85884 -4.15184,-4.15184v-0.14162c-0.3521,-0.60995 -0.55358,-1.31779 -0.55358,-2.07269v-1.66074c0,-0.6919 -0.01276,-3.55079 0.05361,-3.98652c0.08786,-0.57687 0.45765,-1.08515 0.55358,-1.66074c0.08336,-0.50012 0.1406,-1.01262 0.20262,-1.52556c-0.02285,-1.33014 -0.17245,-2.60261 -0.59675,-3.69298l-0.21306,-2.42008c0,0 0,-4.15184 4.15184,-4.15184z"/></g></g></g></svg>