<svg version="1.1" xmlns="http://www.w3.org/2000/svg" xmlns:xlink="http://www.w3.org/1999/xlink" width="180.5" height="59.5" viewBox="0,0,180.5,59.5"><g transform="translate(-180.75,-199.89988)"><g data-paper-data="{&quot;isPaintingLayer&quot;:true}" fill-rule="nonzero" stroke-width="0.5" stroke-linecap="butt" stroke-linejoin="miter" stroke-miterlimit="10" stroke-dasharray="" stroke-dashoffset="0" style="mix-blend-mode: normal"><path d="M181,259.14989v-59h180v59z" fill="#0eab00" stroke="#000000"/><path d="M198.50015,235.13874l-0.00012,-0.00027c0.06343,-6.58993 1.77859,-12.0971 3.04853,-18.47887c0,0 0.49029,-2.45145 2.94174,-1.96116c2.45145,0.49029 1.96116,2.94174 1.96116,2.94174c-1.22022,6.07242 -2.89706,11.26678 -2.95145,17.51812v2.99159c0,1.38071 -1.11929,2.5 -2.5,2.5c-1.38071,0 -2.5,-1.11929 -2.5,-2.5v-3c0,0 0,-0.00382 0.00015,-0.01115z" fill="#0eab00" stroke="none"/><path d="M198.23224,244.91766c-1.76776,-1.76776 0,-3.53554 0,-3.53554l0.68764,-0.61898c2.49115,-3.66431 4.29378,-8.75237 3.59886,-13.30779c-0.42063,-2.75734 -1.0066,-5.51625 -1.01873,-8.30546c0,0 0,-2.5 2.5,-2.5c2.5,0 2.5,2.5 2.5,2.5c-0.01311,2.58559 0.63664,5.13199 0.98127,7.69454c0.78321,5.82373 -1.28178,11.93801 -4.40114,16.69221l-1.31236,1.38102c0,0 -1.76776,1.76776 -3.53553,0z" fill="#32ab27" stroke="none"/><path d="M231.47488,210.79633c0.35356,2.47487 -2.12132,2.82843 -2.12132,2.82843l-2.05025,0.29289c-1.60757,0.22853 -3.19915,0.70926 -4.82272,0.68561c-0.00378,-0.00006 -0.00758,-0.00012 -0.01138,-0.00018c0.29413,1.08409 -0.06582,2.37765 0.32541,3.45506c1.39827,3.85062 5.1504,6.19057 7.40837,9.40063c0.70858,1.00736 0.57789,2.65188 1.60836,3.32643c0.24826,0.16251 0.48302,0.00924 0.72375,-0.22985c-0.05919,-0.43598 -0.20431,-2.42113 1.97463,-2.85692c2.37876,-0.47575 2.91094,1.81837 2.94041,1.95484c0.47152,0.01743 0.94252,0.02426 1.41163,0.00044c1.30793,-0.06641 2.6185,-0.10166 3.92948,-0.10584l-0.03673,-0.33053l4.93331,-0.54815c0.10227,-0.01274 0.20646,-0.0193 0.31218,-0.0193c1.38071,0 2.5,1.11929 2.5,2.5c0,0.31452 -0.05808,0.61547 -0.1641,0.89272c0.10519,0.06309 0.1641,0.10728 0.1641,0.10728c0,-2.33334 0,-4.66666 0,-7c0,0 0,-2.41085 2.36749,-2.4976c-0.0802,-0.23695 -0.15996,-0.47422 -0.2392,-0.71183c0,0 -0.75459,-2.26379 1.42236,-3.10522c-0.14318,-0.68978 -0.30122,-1.38234 -0.476,-2.079c0,0 -0.60634,-2.42536 1.81902,-3.0317c2.42536,-0.60634 3.0317,1.81902 3.0317,1.81902c1.11421,4.47169 1.60605,8.79491 1.87413,13.26226c0.66318,1.93544 1.30131,3.88128 1.87421,5.86075l0.17815,-0.61965c0,0 2.10298,1.35184 0.75113,3.45482c-1.35185,2.10298 -3.45483,0.75114 -3.45483,0.75114l-0.12486,-0.12051c-0.42175,0.32455 -0.94999,0.51753 -1.5233,0.51753c-1.1246,0 -2.07576,-0.74256 -2.38994,-1.76412l-0.11006,-0.33019v0.59431c0,1.38071 -1.11929,2.5 -2.5,2.5c-0.57191,0 -1.09897,-0.19204 -1.52021,-0.51515l-3.97979,-2.98485c0,0 -0.00673,-0.00505 -0.01912,-0.01495c-1.73764,0.71411 -3.51163,1.28456 -5.31203,1.7399c0.39278,0.20424 0.76961,0.5618 1.06722,1.15701c1.11803,2.23607 -1.11804,3.35411 -1.11804,3.35411l-4.8858,0.5317c-1.16314,-1.22536 -1.96338,-2.46268 -2.55008,-3.74984c-3.86823,0.40588 -7.79239,0.48012 -11.68215,0.48208c0,0 -2.5,0 -2.5,-2.5c0,-2.5 2.5,-2.5 2.5,-2.5c1.9629,0.00103 3.96252,-0.01258 5.97192,-0.08092c-1.05991,-1.15721 -1.7012,-2.82477 -2.7219,-4.04847c-1.68596,-2.02126 -3.7764,-3.71467 -5.26236,-5.8872c-1.08489,-1.58615 -2.23561,-3.17368 -2.92723,-4.96659c-0.41311,-1.07091 0.06164,-2.34387 -0.31152,-3.42934c-0.46932,-1.36521 -2.87917,-2.50411 -2.1582,-3.75481c1.53354,-2.66029 8.41986,-3.14356 11.00548,-3.51465l2.05025,-0.2929c0,0 2.47487,-0.35355 2.82843,2.12132zM240.76777,239.38212l-0.62936,-1.04322c-0.08776,0.01801 -0.17558,0.03578 -0.26344,0.0533c0.2583,0.34723 0.55353,0.6781 0.8928,0.98992z" fill="#32ab27" stroke="none"/><path d="M272.14373,222.86365l0.35983,0.59972c-0.00497,-2.19199 -0.00356,-7.70386 -0.00356,-8.31347c0,0 0,-2.5 2.5,-2.5c2.5,0 2.5,2.5 2.5,2.5c0,2.93127 -0.0718,5.86321 -0.00852,8.7938c0.04847,2.24479 1.6275,4.95218 0.2574,6.731c-0.51042,0.66268 -1.32173,1.03811 -2.22472,1.18737c0.0993,0.60356 -0.03037,1.32958 -0.75639,2.0556c-1.76776,1.76776 -3.53553,0 -3.53553,0l-2.40774,-2.53602c-1.24696,-4.61469 -2.30367,-8.44358 -2.3245,-13.23175c0,0 0,-2.5 2.5,-2.5c2.5,0 2.5,2.5 2.5,2.5c-0.0077,1.51954 0.12099,2.9298 0.33071,4.30996c0.20522,0.22411 0.31302,0.4038 0.31302,0.4038z" fill="#32ab27" stroke="none"/><path d="M288.20943,225.77818c1.39551,-0.46517 2.2436,0.16448 2.70534,0.76162c0.50333,-3.80918 1.42449,-7.30571 2.71352,-11.18048c0,0 0.79057,-2.37171 3.16228,-1.58114c2.37171,0.79057 1.58114,3.16228 1.58114,3.16228c-0.3141,0.94035 -0.602,1.85096 -0.86444,2.74502c0.15238,-0.02313 0.31633,-0.03558 0.49273,-0.03558c2.5,0 2.5,2.5 2.5,2.5c0,4.33334 0,8.66666 0,13l0.61804,-1.23607c0,0 2.23607,1.11803 1.11803,3.3541c-1.11804,2.23607 -3.35411,1.11803 -3.35411,1.11803l-3.38196,-3.23607c0,-1.40234 0,-2.80469 0,-4.20703c-0.00544,0.08469 -0.01071,0.16966 -0.01582,0.25492l-0.14986,0.26085l0.08171,0.02466l-1.00637,3.33497c-0.29232,1.05619 -1.26043,1.83163 -2.40965,1.83163c-0.88153,0 -1.6565,-0.45625 -2.10163,-1.14551l-1.97849,-2.96774l0.08129,-0.05419c-0.08232,-0.07806 -0.16464,-0.15612 -0.24696,-0.23418l-1.12592,-3.30781c0,0 -0.79057,-2.37171 1.58114,-3.16228z" fill="#32ab27" stroke="none"/><path d="M323,228.64989c1.5,-2 3.5,-0.5 3.5,-0.5l2.12715,1.8108c0.27964,-1.40658 0.59635,-2.84099 0.93238,-4.35313c0,0 0.26049,-1.17218 1.23278,-1.71127c0.18773,-0.37379 0.49478,-0.73179 0.99271,-0.97058c0.40632,-2.5266 0.93865,-3.8393 1.84327,-6.56639c0,0 0.79057,-2.37171 3.16228,-1.58114c2.37171,0.79057 1.58114,3.16228 1.58114,3.16228c-0.94882,2.8313 -1.51432,4.12707 -1.86505,7.36458c-0.12754,1.17734 0.03746,2.8012 -0.0462,4.38068c0.10647,0.02397 0.21648,0.05459 0.33011,0.09247c0.62344,0.20782 1.02837,0.52488 1.28659,0.8794c0.16391,0.00188 0.26484,0.01581 0.26484,0.01581l0.158,0.08938c0,-2.35429 0,-6.27409 0,-7.61288c0,0 0,-2.5 2.5,-2.5c0.46832,0 0.84889,0.08773 1.15819,0.23031c0.14253,-0.68123 0.26786,-1.37408 0.36694,-2.08387c0,0 0.35355,-2.47488 2.82843,-2.12132c2.47487,0.35356 2.12132,2.82843 2.12132,2.82843c-0.42857,2.93961 -1.12372,5.58364 -1.97987,8.18562c0.1103,0.84037 -0.25894,1.57886 -0.25894,1.57886l-1.04328,2.08657c-0.5285,1.40616 -1.08912,2.83453 -1.66553,4.32439l-4.86926,-0.0525c0,0 -0.06411,-0.00885 -0.17026,-0.03402l-1.0978,3.2934c-0.31417,1.02156 -1.26534,1.76412 -2.38994,1.76412c-0.56281,0 -1.08217,-0.18597 -1.5,-0.49982v4.99982c0,1.38071 -1.11929,2.5 -2.5,2.5c-1.38071,0 -2.5,-1.11929 -2.5,-2.5v-5c0.00502,-1.77188 0.11284,-3.42645 0.29717,-5.03754l-4.29717,-2.96246c0,0 -2,-1.5 -0.5,-3.5z" fill="#32ab27" stroke="none"/><path d="M309.23224,228.38212c1.76776,-1.76776 3.53553,0 3.53553,0l0.34476,1.43938c-0.2437,-1.65374 0.23011,-3.4293 0.46704,-5.1037c0.46544,-3.28937 0.4775,-6.63246 0.94556,-9.92146c0,0 0.35355,-2.47488 2.82843,-2.12132c2.47487,0.35356 2.12132,2.82843 2.12132,2.82843c-0.47381,3.30344 -0.47618,6.66322 -0.95218,9.96634c-0.60804,4.21936 -1.94314,6.06944 -3.85536,10.0894l-5.4351,-3.64152c0,0 -1.76776,-1.76777 0,-3.53554z" fill="#32ab27" stroke="none"/><path d="M228.34083,234.27208c0.87781,2.34082 -1.46301,3.21864 -1.46301,3.21864l-3.31835,1.24438c-1.59019,0.59614 -3.23304,1.05724 -4.90193,1.4113l0.1245,0.37803l-3.57694,1.17802c-0.26182,0.09306 -0.54372,0.14372 -0.83747,0.14372c-1.38071,0 -2.5,-1.11929 -2.5,-2.5c0,-0.39016 0.08938,-0.75944 0.24877,-1.0885l2.01489,-4.40518c0.99543,-3.00805 1.79889,-6.08538 2.41727,-9.19289c0,0 0.49029,-2.45145 2.94174,-1.96116c2.45145,0.49029 1.96116,2.94174 1.96116,2.94174c-0.65204,3.24484 -1.5006,6.45563 -2.52336,9.60396c0.92855,-0.47608 1.94589,-0.84188 2.87574,-1.19069l3.31835,-1.24438c0,0 2.34082,-0.87781 3.21864,1.46301z" fill="#37bc2b" stroke="none"/><path d="M217.42536,235.75623c-0.60634,2.42535 -3.03169,1.81902 -3.03169,1.81902l-4.64588,-1.26157c-0.99414,-1.03403 -2.3527,-1.81329 -2.98242,-3.10208c-1.16215,-2.37846 -0.86312,-8.21953 -2.75213,-10.54422c-0.58806,-0.72369 -1.59999,-0.95824 -2.39999,-1.43736c0,0 -2.08013,-1.38675 -0.69338,-3.46687c1.38675,-2.08013 3.46688,-0.69338 3.46688,-0.69338c1.20001,0.85422 2.68508,1.40826 3.60001,2.56264c2.76855,3.4931 1.29444,9.2823 4.26545,12.3537l3.35412,0.73843c0,0 2.42535,0.60634 1.81902,3.0317z" fill="#37bc2b" stroke="none"/><path d="M242.80527,225.91447c0.31005,-0.62982 0.93502,-1.26458 2.19474,-1.26458c2.5,0 2.5,2.5 2.5,2.5l-3.29225,4.37115c-6.04306,-2.01962 -13.73989,-3.31082 -17.38325,-9.1394c-1.3708,-2.19298 -1.37692,-4.98821 -2.19621,-7.44118c0,0 -0.79057,-2.37171 1.58114,-3.16228c2.37171,-0.79057 3.16228,1.58114 3.16228,1.58114c0.71581,2.1515 0.68389,4.58724 1.80379,6.55882c1.96086,3.45209 7.33573,4.8411 11.62976,5.99633z" fill="#37bc2b" stroke="none"/><path d="M271.80081,235.88399c-1.7341,1.8008 -3.53491,0.06671 -3.53491,0.06671l6.47821,-4.60501c-1.58405,-0.30267 -11.24731,2.67192 -12.75213,2.09197c-6.44162,-2.48257 -9.81582,-8.43652 -11.41733,-14.68143c0,0 -0.60634,-2.42536 1.81902,-3.0317c2.42535,-0.60634 3.03169,1.81902 3.03169,1.81902c1.15673,4.77375 3.5604,9.49235 8.58267,11.31858c1.61715,0.58804 3.36912,0.70208 5.05367,1.05313l2.6724,2.43383c0,0 1.80081,1.7341 0.06671,3.53491z" fill="#37bc2b" stroke="none"/><path d="M290.49788,240.9796c0.08369,0.74511 -0.0904,1.76163 -1.37984,2.40635c-2.23607,1.11803 -3.35411,-1.11803 -3.35411,-1.11803l0.39553,-3.48177l-0.08994,-0.03876c-1.70227,-0.61955 -3.34331,-1.38879 -4.96482,-2.2027l-1.33693,1.37296c0,0 -1.76776,1.76776 -3.53553,0c-1.76776,-1.76776 0,-3.53554 0,-3.53554l0.18839,-0.18466c-1.04607,-0.36668 -2.23836,-0.45559 -3.07012,-1.16897c-2.65143,-2.27403 -3.43809,-7.5289 -5.43063,-10.49185c0,0 -1.38675,-2.08012 0.69338,-3.46687c2.08013,-1.38675 3.46688,0.69338 3.46688,0.69338c1.15675,1.74826 2.1536,3.60752 3.01905,5.52342l0.31696,-0.56753c0.4937,-0.11858 9.11066,-2.18869 9.15416,-2.19709c1.41616,-0.27327 2.95329,-0.04293 4.28575,-0.59497c0.93095,-0.38568 1.23181,-1.76654 2.18725,-2.08678c1.4084,-0.47206 2.98723,0.09507 4.45405,-0.13924c3.19303,-0.51008 6.55716,-2.8688 9.71209,-3.92276c0,0 2.37171,-0.79057 3.16228,1.58114c0.79057,2.37171 -1.58114,3.16228 -1.58114,3.16228c-1.62885,0.54167 -3.28852,1.38652 -4.95929,2.17647c1.09949,-0.03409 2.16316,-0.04585 3.16872,-0.04818c0,0 2.5,0 2.5,2.5c0,2.5 -2.5,2.5 -2.5,2.5c-1.65893,-0.00424 -3.73998,-0.00748 -5.92075,0.12484c0.10454,0.15258 0.15682,0.25712 0.15682,0.25712c0.73235,1.51455 1.77839,2.91426 2.19705,4.54366c0.23912,0.93061 -0.08749,1.93057 -0.12822,2.89486c3.25155,0.04567 6.50325,0.17952 9.6951,0.17952c0,0 2.5,0 2.5,2.5c0,2.5 -2.5,2.5 -2.5,2.5c-1.81311,0 -3.6599,-0.05449 -5.52152,-0.11262c-0.2439,2.11262 -2.47848,2.11262 -2.47848,2.11262l-4.08013,-1.11325c-0.24532,-0.3885 -0.52655,-0.76062 -0.8094,-1.13201c-2.57291,0.02757 -5.12689,0.17494 -7.61259,0.57497zM296.56688,233.72427c-0.30605,-1.26289 -1.20197,-2.30423 -1.80295,-3.45635c0,0 -0.49907,-0.99813 -0.16346,-1.9941c-2.71817,0.47455 -5.24893,1.30593 -6.95646,2.75948c-0.70411,0.59938 -0.95833,1.59989 -1.46148,2.37726c0.56833,0.2467 1.14308,0.47796 1.72683,0.68763l3.94091,1.69594c1.56995,-0.16583 3.15407,-0.25806 4.74522,-0.30304c0.06582,-0.5986 0.10996,-1.19504 -0.0286,-1.76681zM282.3455,230.27569c0.59789,-0.49898 0.86622,-1.29736 1.23661,-2.00103c-1.80498,0.31687 -3.61812,0.60146 -5.30997,0.93848c-0.05899,0.14416 -0.13324,0.29171 -0.22671,0.43475c0.34787,0.03836 0.69378,0.08539 0.99921,0.23071c0.73955,0.35188 1.47125,0.72262 2.20096,1.09809c0.39139,-0.19532 0.76361,-0.42036 1.09989,-0.70101z" fill="#37bc2b" stroke="none"/><path d="M320,230.64989c-0.13676,0 -0.26604,-0.00748 -0.38824,-0.02163c0.33223,0.28256 0.83515,0.45029 1.15601,0.75386c2.0546,1.94387 4,4 6,6l0.73224,2.76777c0,0 0,2.5 -2.5,2.5c-2.31279,0 -2.48598,-2.1396 -2.49895,-2.46004c-1.76448,-1.74936 -3.55043,-3.47771 -5.26882,-5.27219c-0.87374,-0.91243 -2.12276,-1.61933 -2.54194,-2.81106c-0.54863,-1.55978 -0.12686,-3.30447 -0.1903,-4.95671c0,0 0,-0.67069 0.34738,-1.3173c-2.57821,-2.409 -5.13366,-5.36574 -4.21683,-8.48004c1.64715,-5.59504 6.93974,-2.41848 10.03652,-4.31768c1.16816,-0.71642 1.55528,-2.25665 2.33293,-3.38499c0,0 1.5,-2 3.5,-0.5c2,1.5 0.5,3.5 0.5,3.5c-1.22235,1.53834 -2.01417,3.55268 -3.66707,4.61502c-1.56171,1.00373 -3.61488,0.84884 -5.43124,1.23255c-0.83878,0.1772 -2.31951,-0.38072 -2.53224,0.44976c-0.23638,0.92279 1.19096,1.49174 1.86165,2.16819c1.46163,1.47419 3.06844,2.79911 4.53668,4.26671l0.73224,2.76777c0,0 0,2.5 -2.5,2.5z" fill="#37bc2b" stroke="none"/><path d="M345.59312,241.5333c-2.83074,0.52752 -5.71368,-0.89613 -8.59312,-0.88341c0,0 -2.5,0 -2.5,-2.5c0,-2.5 2.5,-2.5 2.5,-2.5c1.08211,0.00405 2.17611,-0.14776 3.24635,0.01216c1.35397,0.20231 2.60027,1.155 3.96634,1.06558c0.411,-0.0269 0.59684,-0.47513 0.7948,-0.90068c-0.34871,-0.43707 -0.76328,-0.84098 -1.08762,-1.29032c0,0 -1.38675,-2.08012 0.69338,-3.46687c2.08013,-1.38675 3.46688,0.69338 3.46688,0.69338c0.77087,1.22077 1.83961,2.29818 2.3126,3.66229c0.30238,0.87206 -0.38601,1.8959 -0.08303,2.76775c0.20586,0.59237 0.97204,0.79263 1.45806,1.18894l2,2c0,0 1.76776,1.76777 0,3.53554c-1.76776,1.76776 -3.53553,0 -3.53553,0l-2,-2c-0.55012,-0.60836 -1.24525,-1.12328 -1.80295,-1.72676c-0.25554,0.1639 -0.53079,0.28549 -0.83617,0.3424z" fill="#37bc2b" stroke="none"/><path d="M348.76777,213.38212c1.76776,1.76776 0,3.53554 0,3.53554l-0.26776,-0.76777c0,3 0,6 0,9c0,0 0,2.5 -2.5,2.5c-2.5,0 -2.5,-2.5 -2.5,-2.5c0,-1.90895 0,-3.8179 0,-5.72685c-2.91582,5.72895 -7.2908,9.94006 -12.91503,13.6602l-1.81721,1.83442c0,0 -1.76776,1.76776 -3.53553,0c-1.76776,-1.76776 0,-3.53554 0,-3.53554l2.18279,-2.16559c6.19032,-4.15518 10.80151,-8.57083 13.21326,-15.85721c0,0 0.79057,-2.37171 3.16228,-1.58114c0.96019,0.32006 1.40206,0.89928 1.58793,1.47536c0.45838,-0.37266 1.92382,-1.33686 3.38927,0.12858z" fill="#37bc2b" stroke="none"/><path d="M213,244.64989c-1.85401,0 -2.33308,-1.37494 -2.45687,-2.0855c-2.94789,-1.5521 -5.94912,-0.9145 -9.54313,-0.9145c0,0 -2.5,0 -2.5,-2.5c0,-2.5 2.5,-2.5 2.5,-2.5c2.70639,0 7.18507,-0.72463 9.72446,0.10727c1.37204,0.44948 2.44153,1.54173 3.66229,2.3126l1.11325,3.08013c0,0 0,2.5 -2.5,2.5z" fill="#37bc2b" stroke="none"/><path d="M237.5,238.14989c0,2.5 -2.5,2.5 -2.5,2.5l-2.11803,-0.26393c-1.44152,-0.73142 -2.97435,-1.3055 -4.32455,-2.19427c-0.72046,-0.47425 -1.02044,-1.5064 -1.81332,-1.846c-1.31735,-0.56425 -2.82293,-0.49623 -4.23439,-0.74435c0,0 -2.45145,-0.49029 -1.96116,-2.94174c0.49029,-2.45145 2.94174,-1.96116 2.94174,-1.96116c1.85713,0.40561 3.82432,0.46773 5.57141,1.21681c0.99164,0.42517 1.48048,1.59836 2.38088,2.19283c1.13915,0.75209 2.4503,1.20383 3.67545,1.80574l-0.11803,-0.26393c0,0 2.5,0 2.5,2.5z" fill="#37bc2b" stroke="none"/><path d="M257,247.64989c-2.5,0 -2.5,-2.5 -2.5,-2.5l0.4498,0.43062c-0.99984,-1.43908 -1.78011,-2.95443 -2.61875,-4.41917c-0.56167,1.48855 -2.33105,1.48855 -2.33105,1.48855h-1c-1.31891,-0.06343 -2.7323,0.30401 -3.95671,-0.1903c-2.76084,-1.11459 -5.57752,-5.6199 -7.12342,-7.92295c0,0 -1.38675,-2.08012 0.69338,-3.46687c2.08013,-1.38675 3.46688,0.69338 3.46688,0.69338c1.79081,2.7074 3.51726,6.20365 6.91987,5.88675h0.92699c-0.21991,-0.25031 -0.45082,-0.4947 -0.69475,-0.73223c0,0 -1.76776,-1.76777 0,-3.53554c1.76776,-1.76776 3.53553,0 3.53553,0c2.75376,2.80937 4.04403,6.14488 6.28244,9.33715l0.4498,2.43062c0,0 0,2.5 -2.5,2.5z" fill="#37bc2b" stroke="none"/><path d="M201.5,251.14989c0,-1.38071 1.11929,-2.5 2.5,-2.5c1.38071,0 2.5,1.11929 2.5,2.5c0,1.38071 -1.11929,2.5 -2.5,2.5c-1.38071,0 -2.5,-1.11929 -2.5,-2.5z" fill="#37bc2b" stroke="none"/></g></g></svg>