<svg version="1.1" xmlns="http://www.w3.org/2000/svg" xmlns:xlink="http://www.w3.org/1999/xlink" width="97.37572" height="104.86775" viewBox="0,0,97.37572,104.86775"><g transform="translate(-170.06787,-152.1629)"><g data-paper-data="{&quot;isPaintingLayer&quot;:true}" fill-rule="nonzero" stroke="none" stroke-width="1" stroke-linecap="butt" stroke-linejoin="miter" stroke-miterlimit="10" stroke-dasharray="" stroke-dashoffset="0" style="mix-blend-mode: normal"><g><g fill="#ffde8a" opacity="0.9"><path d="M182.71953,166.9975c-4.65421,7.65445 4.85147,16.7913 9.53575,21.83722c2.82145,3.03618 5.67482,5.9204 8.26923,9.13104c1.78775,2.21611 3.77245,4.85441 4.15292,7.72701c0.81897,6.67771 -1.17666,27.96541 11.57885,22.83756c4.01729,-1.59987 6.92798,-5.93923 11.36166,-6.4996c3.7507,-0.48166 5.81411,2.83961 6.53225,6.06874c0.9169,4.096 0.51284,8.73967 -0.7617,12.69276c-0.85598,2.8668 -2.79282,6.64905 -6.25263,6.65231c-1.43159,0.01668 -1.69019,-2.22736 -0.2586,-2.24404c4.29476,-0.05004 5.25085,-7.62435 5.44454,-10.66198c0.26877,-3.24401 0.07111,-11.82227 -5.35528,-10.01059c-4.23491,1.42722 -7.02736,5.5058 -11.50238,6.56525c-4.23672,0.98255 -7.9196,-0.52086 -9.99606,-4.38436c-2.39346,-4.46958 -2.57843,-9.93514 -2.80474,-14.90162c-0.18896,-3.78443 0.04789,-6.87647 -2.10184,-10.08892c-4.36511,-6.56564 -10.68735,-11.66996 -15.54973,-17.83228c-4.05572,-5.16779 -7.90108,-11.94162 -4.03321,-18.26967c0.79758,-1.22883 2.49539,0.20675 1.74097,1.38117z"/></g><g fill="#ffde8a" opacity="0.9"><path d="M181.1737,165.59384c6.44559,-4.549 14.0304,1.64561 19.16517,5.45327c6.58122,4.77789 14.23168,11.11322 22.91694,10.55722c7.69835,-0.54114 19.62255,-4.73286 24.17118,4.2832c1.91325,3.73402 0.97456,7.59897 -0.07293,11.3776c-1.26149,4.49533 -1.55855,8.78065 2.06774,12.36669c6.14198,6.11372 13.20381,-4.24032 16.08078,-8.87238c0.74318,-1.27199 2.53855,0.15234 1.74097,1.38117c-3.29734,5.27368 -10.19958,14.86786 -17.57076,10.52703c-3.28318,-1.89549 -5.52285,-5.88848 -5.61425,-9.68416c-0.05947,-3.94765 1.85669,-7.48036 2.19872,-11.37542c0.48676,-5.64183 -3.74561,-8.91087 -8.97468,-9.24747c-4.7844,-0.33841 -9.39834,1.23135 -14.22409,1.39202c-8.31748,0.3159 -15.58348,-4.82796 -21.95833,-9.53077c-4.4819,-3.28972 -12.60496,-11.15239 -18.55328,-7.00672c-1.18966,0.82913 -2.53093,-0.94412 -1.37319,-1.62128z"/></g><path d="M246.65727,215.23954c-1.00359,-1.41672 -3.78806,-0.70039 -5.19716,-0.48857c-1.74496,0.29995 -3.57624,0.70871 -5.38685,0.86793c-2.69995,0.16285 -5.48043,-0.80195 -6.30557,-3.67273c-0.85887,-3.16349 0.26551,-6.70382 0.24158,-9.9141c-0.01994,-4.8914 -2.13013,-9.04761 -5.5388,-12.461c-3.75759,-3.8675 -8.41213,-6.9396 -12.86031,-9.93661c-5.1986,-3.50371 -10.62425,-6.83297 -16.27515,-9.54309c-3.29261,-1.54838 -9.3149,-4.90774 -13.03768,-2.89693c-1.29847,0.74281 -2.08807,-1.3906 -0.83276,-2.07901c4.42642,-2.33906 11.21982,1.27746 15.19721,3.19181c5.81411,2.83961 11.34857,6.25518 16.71039,9.88838c4.81776,3.20158 9.85315,6.57581 13.71012,10.87674c2.8871,3.17691 4.87724,7.14923 5.17682,11.46466c0.1273,1.96258 -0.04934,3.86133 -0.22598,5.76007c-0.15597,1.64921 -0.49582,3.41847 -0.06638,5.00021c1.61836,5.89355 13.10407,-2.10328 16.67014,2.67605c0.82913,1.18966 -0.99852,2.48777 -1.97963,1.26619z" fill="#f7b5bc"/><path d="M222.05587,241.10958c-3.26069,-1.70035 -5.78763,-4.3256 -6.17172,-8.08754c-0.36161,-3.56681 0.98983,-7.2816 2.23427,-10.63805c1.27636,-3.50841 3.322,-7.20434 3.82725,-10.96992c0.55966,-3.72241 -2.05904,-7.57286 -3.97991,-10.5151c-3.05576,-4.64042 -6.34981,-9.20394 -9.8165,-13.54984c-4.06697,-5.26535 -8.50171,-10.2906 -13.36808,-14.77179c-1.92667,-1.70579 -9.12484,-8.83472 -12.07289,-5.6774c-0.92888,0.94738 -2.56104,-0.34747 -1.63216,-1.29485c3.92009,-4.1591 10.39613,1.42181 13.46531,4.034c9.49081,8.14993 17.00561,18.4554 24.16206,28.65388c2.13848,3.11489 4.47392,6.65196 5.20512,10.42334c0.65431,3.53308 -1.01232,7.08647 -2.22484,10.29094c-2.58644,6.72413 -7.31029,15.91898 1.15661,20.33127c1.20635,0.60245 0.3899,2.5255 -0.78453,1.77107z" fill="#f2e5d1"/><path d="M242.22896,257.02499c-5.57437,0.09864 -10.6551,-1.09538 -15.75069,-3.27632c-4.31325,-1.82621 -9.24382,-3.43299 -12.1233,-7.40169c-2.46492,-3.37386 -3.15477,-7.64432 -3.627,-11.74212c-0.41601,-3.60997 -0.03625,-8.89345 -3.6027,-11.10232c-3.14245,-1.96114 -6.96242,-2.50955 -9.86839,-4.99225c-2.79715,-2.39638 -4.2864,-5.88267 -4.40971,-9.52638c-0.15704,-3.93641 1.08558,-7.73752 3.1762,-11.04318c1.91797,-3.08804 3.12288,-5.50073 2.64122,-9.25144c-1.23135,-9.39834 -9.3526,-16.81634 -17.1797,-21.25293c-1.31516,-0.68877 -0.42363,-2.8182 0.84836,-2.07502c8.14229,4.59799 16.10032,11.88651 18.23226,21.37879c0.63001,2.89328 0.68586,5.95158 -0.43091,8.70013c-0.74137,1.71667 -2.01554,3.09928 -2.86572,4.72963c-0.9365,1.73915 -1.65538,3.65096 -2.01591,5.66975c-0.70982,4.13516 0.33838,8.51262 3.80907,11.1774c2.92664,2.23316 6.6378,2.69525 9.63952,4.72204c2.68653,1.86538 3.40467,5.09452 3.80763,8.16225c0.53969,4.68321 0.53895,9.82415 2.95309,14.04419c2.41414,4.22004 7.07268,5.61102 11.23396,7.40531c4.88922,2.10586 9.84046,3.4631 15.2197,3.38694c1.43159,-0.01668 1.69019,2.22736 0.31301,2.2872z" fill="#ef8989"/><g fill="#fce4b4" opacity="0.6"><path d="M262.26072,211.66188c-4.54429,0.02937 -9.08097,-0.73304 -11.54951,-4.99624c-1.29992,-2.27233 -1.6035,-4.90664 -3.04414,-7.11332c-1.68076,-2.57446 -4.39558,-3.39853 -7.0034,-4.58094c-3.33577,-1.49398 -7.93447,-1.50777 -9.83647,-5.14422c-1.66189,-3.26867 -1.16789,-7.13181 -2.00608,-10.54484c-1.27888,-5.09234 -7.26563,-7.71433 -11.71961,-9.47489c-6.31137,-2.43628 -13.10696,-3.927 -19.89891,-4.52838c-4.39413,-0.38339 -10.89339,-1.01849 -14.71011,1.89291c-1.13526,0.8723 -2.43337,-0.95536 -1.29811,-1.82766c4.36839,-3.27156 11.34424,-2.79024 16.38942,-2.33359c6.73755,0.55821 13.43557,2.06018 19.7901,4.44205c4.55154,1.74932 10.27752,4.25307 12.76855,8.7114c1.57376,2.93281 1.49069,6.50144 1.9593,9.7099c0.26803,1.89693 0.84001,3.8577 2.71989,4.72855c0.99997,0.52737 2.13885,0.54442 3.2139,0.86541c1.22702,0.35291 2.37896,0.9122 3.57406,1.41708c2.08626,0.94593 4.34517,1.67424 6.09738,3.15298c1.49143,1.3605 2.47435,3.02675 3.23021,4.86747c1.02971,2.5012 1.44209,5.22182 3.81344,6.9258c2.09932,1.48817 4.833,1.61802 7.3059,1.62964c1.43159,-0.01668 1.78775,2.21611 0.2042,2.20088z"/></g><g fill="#fce4b4" opacity="0.6"><path d="M259.31661,239.73211c-1.16718,1.02427 -2.83343,2.00719 -4.42061,1.10261c-1.47837,-0.81826 -2.10475,-2.82219 -2.62051,-4.29512c-1.43847,-4.33248 -3.01149,-12.40623 -8.54632,-13.25134c-2.06196,-0.30612 -4.19538,0.48347 -6.22179,0.91472c-2.12398,0.44249 -4.31362,0.74426 -6.47314,0.44937c-2.61544,-0.39064 -5.08254,-1.6387 -7.60223,-2.48525c-2.10693,-0.69639 -4.26827,-1.43595 -6.06365,-2.86028c-3.48193,-2.76235 -4.12862,-7.08721 -5.18625,-11.11755c-0.80447,-3.12033 -1.84723,-6.16376 -2.98756,-9.19595c-2.96145,-8.11147 -6.53078,-16.35062 -11.46242,-23.54301c-3.09892,-4.58601 -9.06245,-12.1538 -15.3372,-8.2671c-1.20091,0.73157 -2.54218,-1.04169 -1.29811,-1.82766c6.82642,-4.24686 13.23862,1.63799 17.20802,6.91459c5.24502,6.90912 8.84627,14.9963 11.99161,22.98772c1.32603,3.35681 2.51133,6.77927 3.54467,10.16981c1.06706,3.68324 1.36664,7.99867 3.88415,10.97102c1.60205,1.89149 3.92661,2.76053 6.18551,3.48884c2.6285,0.93288 5.31322,2.35358 8.11255,2.62417c4.25341,0.44903 8.3534,-2.14899 12.59737,-1.35285c4.54792,0.85998 6.88879,5.73107 8.32544,9.61888c0.73519,2.09025 1.2865,4.30056 2.11925,6.37957c0.82152,1.98144 1.49505,2.24984 3.1595,0.82225c1.17842,-0.9267 2.47653,0.90096 1.09173,1.75258z"/></g><path d="M248.29266,233.29123c-4.69083,1.33147 -9.58042,1.79608 -14.4399,1.66405c-3.16711,-0.03047 -6.54061,-0.13603 -9.62502,-1.16466c-4.7786,-1.57486 -8.47996,-4.95453 -11.17556,-9.04327c-2.14973,-3.21246 -4.06116,-6.50181 -4.31577,-10.42697c-0.22088,-3.63246 0.24121,-7.34363 0.61698,-10.94598c0.33261,-3.54795 0.91294,-7.5199 -0.13164,-11.00801c-0.71452,-2.33979 -2.39346,-4.46958 -3.80038,-6.38356c-2.05035,-2.77903 -4.27334,-5.34043 -6.63707,-7.83619c-4.1065,-4.3216 -10.28222,-10.72802 -16.74593,-10.62575c-1.43159,0.01668 -1.69019,-2.22736 -0.2586,-2.24404c6.96279,-0.06092 13.23426,5.88958 17.81917,10.50207c4.02961,4.08331 8.06104,8.61129 10.81466,13.63254c3.24508,5.85438 1.03186,13.67242 0.62381,19.99722c-0.25571,3.78625 -0.06857,7.12601 1.81095,10.56733c2.63357,4.83736 6.06835,9.33524 11.391,11.34172c2.90053,1.14868 6.17645,1.26548 9.246,1.3072c4.6531,0.05695 9.41321,-0.24444 13.9089,-1.55342c1.38661,-0.40695 2.21937,1.67206 0.89841,2.21974z" fill="#f7b5bc"/><path d="M182.97669,166.22639c1.06851,6.69838 4.90661,11.69352 11.74535,13.12984c5.92691,1.24481 12.23503,0.22127 18.06474,-1.09315c2.69814,-0.60752 5.33063,-1.35577 8.00629,-2.15842c2.19906,-0.64887 4.30999,-1.6336 6.58776,-1.5995c2.51606,-0.04279 5.53483,0.84511 6.93232,3.10619c1.27743,2.0772 0.6485,4.76953 0.06092,6.96279c-0.33042,1.42215 -1.23501,3.00934 -0.56728,4.51419c0.47079,1.08267 1.5364,1.75077 2.53637,2.27814c2.84793,1.55019 6.27764,2.14358 9.50097,2.66189c2.97379,0.49763 6.02267,0.78889 8.96454,1.43849c1.36775,0.28726 3.96252,0.92744 3.29804,2.8824c-0.30032,0.82551 -1.18785,1.27381 -1.88025,1.69962c-2.14285,1.1367 -3.3851,2.36735 -3.2879,4.92658c0.27129,5.35675 5.56165,10.08567 10.65181,10.93259c1.41091,0.23286 1.07287,2.44679 -0.33804,2.21393c-5.64364,-0.93143 -10.6939,-5.29257 -12.22412,-10.85026c-0.59446,-2.1559 -0.61477,-4.47683 0.54878,-6.39045c0.58178,-0.95681 1.38117,-1.74097 2.35503,-2.29808c0.22705,-0.17446 1.65501,-1.08049 1.90455,-1.05981c0.15197,0.03192 0,0 0.05441,0.04316c-0.16322,-0.12948 0.12187,0.62856 0.16503,0.57416c0,0 -0.57597,-0.27964 -0.78235,-0.35472c-1.17262,-0.30975 -2.43155,-0.51069 -3.63609,-0.66847c-3.47287,-0.53898 -6.97766,-0.92599 -10.33229,-1.72576c-2.88747,-0.60644 -6.15578,-1.51502 -8.32255,-3.58859c-2.55886,-2.47327 -1.52842,-5.11301 -0.73808,-8.12054c0.45991,-1.58537 1.00433,-3.72422 -0.15124,-5.17286c-1.19873,-1.39423 -3.61904,-1.80735 -5.28892,-1.71378c-2.40725,0.12912 -4.98353,1.3652 -7.28016,2.02531c-5.30815,1.5509 -10.79075,2.87475 -16.33139,3.2661c-4.95524,0.32388 -10.23872,-0.05588 -14.64191,-2.66263c-4.67522,-2.82256 -7.01609,-7.69365 -7.81838,-12.93977c-0.22306,-1.50666 2.02098,-1.76527 2.24404,-0.2586z" fill="#ef8989"/></g><g><g><path d="M221.71329,157.06643c3.14208,4.53161 1.51607,12.72686 -0.68736,17.62732c-3.72932,8.3882 -7.53191,17.42746 -14.39424,23.50742c-15.64808,13.91394 -24.58433,11.43413 -24.58433,11.43413c-7.03025,-0.52448 -12.38372,-10.0904 -11.95318,-16.22006c0.79724,-11.95538 4.52693,-22.91406 13.73668,-30.50031c4.19393,-3.49862 8.33527,-6.59572 13.47839,-8.72078c10.3294,-4.30453 21.63337,-1.01008 24.40404,2.87229z" fill="#f4c76e" opacity="0.9"/><path d="M222.27221,158.48496c0.39389,0.84437 0.70146,1.79755 0.8683,2.81638c-0.98872,-0.4298 -1.97745,-0.85961 -3.00934,-1.23501c-2.31331,-0.77147 -4.81813,-0.63111 -7.30228,-0.74029c-4.52362,-0.22017 -9.05086,-1.32968 -13.58029,-0.3134c-2.02642,0.43125 -3.98719,1.00323 -5.94795,1.5752c0.34711,0.00943 0.59664,0.03011 0.88935,-0.00363c2.51606,-0.04279 4.94581,0.02322 7.35668,0.78345c2.66042,0.7809 5.04119,2.13778 7.62653,3.12506c2.99809,1.13744 5.17829,1.18278 8.10168,-0.04387c1.79755,-0.70146 3.63827,-1.45733 5.59142,-1.23753c0.15197,0.03192 0.40151,0.05259 0.55348,0.08451c0.03554,0.73737 0.02792,1.52915 -0.0341,2.27777c-0.55348,-0.08451 -1.15013,-0.11462 -1.69237,-0.10156c-1.96258,0.1273 -3.74708,1.37101 -5.61028,1.93174c-1.8088,0.6039 -3.54433,0.55674 -5.37923,0.07616c-4.95124,-1.35724 -9.0748,-4.53996 -14.32455,-4.62702c-2.42974,-0.06602 -4.8914,0.01994 -7.25368,0.53932c3.52546,0.13747 7.05455,1.16429 9.43533,2.52116c4.13117,2.39094 7.53984,5.80434 11.78925,7.93449c3.24944,1.60279 6.64724,2.34815 10.13897,2.19292c-0.35472,0.78235 -0.66629,1.51029 -1.02101,2.29264c-6.33423,-0.06095 -11.86688,-3.03185 -17.06729,-6.98024c-3.47069,-2.66478 -6.69003,-4.86421 -11.05225,-5.39957c-2.25709,-0.28364 -5.33789,-0.42292 -7.64395,0.5843c-0.04316,0.05441 -0.08632,0.10881 -0.12948,0.16322c5.65307,0.58432 9.76901,4.55882 13.8737,8.43575c2.92845,2.67784 6.0426,5.68029 9.6504,7.39007c2.87985,1.39822 6.11261,1.56942 9.14263,2.55489c-0.32281,0.63038 -0.68877,1.31516 -1.05474,1.99994c-2.67166,-0.87847 -5.55732,-1.04024 -8.1539,-2.12509c-3.37893,-1.43957 -6.28489,-3.92227 -8.98448,-6.32989c-4.34299,-3.80004 -8.57317,-9.19488 -14.61651,-9.73423c0.53063,2.45985 2.55668,4.59907 4.42894,6.2617c2.92845,2.67784 6.24536,4.86602 9.4647,7.06546c4.99222,3.42863 10.27134,8.05999 11.49944,13.99851c-0.61551,0.66411 -1.32858,1.33946 -1.99849,1.9604c-0.43233,-7.61203 -8.45637,-12.4708 -14.21027,-16.5037c-3.4482,-2.46965 -8.79878,-6.00528 -10.79073,-10.42227c0.1799,1.56107 0.75006,3.07717 1.2865,4.30056c1.50049,3.58386 3.71587,6.93705 5.92,10.19267c1.96403,2.88784 3.92805,5.77568 5.38357,8.96927c1.478,3.38873 1.6238,7.22757 2.57081,10.72692c-0.6924,0.42581 -1.34164,0.79722 -1.99087,1.16862c-1.13271,-3.82397 -1.26908,-8.00991 -3.03035,-11.71202c-1.70687,-3.65894 -4.09489,-6.79451 -6.31027,-10.14769c-1.5607,-2.39057 -4.07059,-6.1547 -5.38719,-9.85862c-0.21799,2.39782 -0.63111,4.81813 -0.59956,7.23663c0.12694,4.53305 0.56906,9.2275 1.43337,13.72501c0.83058,4.20481 1.43592,9.02875 4.61572,12.17193c0.50089,0.48602 1.00178,0.97204 1.54583,1.40366c-1.20272,0.28689 -2.17839,0.39933 -2.97017,0.39171c-2.35248,-2.39819 -3.56789,-5.22401 -4.36292,-8.69144c-1.18312,-5.54826 -1.99665,-10.89195 -2.39924,-16.53015c-0.27528,-3.67562 0.56583,-7.52933 0.58325,-11.23868c-0.22524,0.61913 -0.49364,1.29267 -0.66447,1.95496c-0.57634,2.29082 -0.42473,4.89321 -0.7947,7.25912c-0.3268,2.3115 -0.85998,4.54792 -1.28434,6.87066c-0.80738,4.14641 -2.92449,8.93806 -1.78996,13.2067c0.16503,0.57416 0.49508,1.72247 1.02027,2.8483c-1.47075,-1.61004 -2.63938,-3.60091 -3.41773,-5.63676c0.07545,-2.77685 0.84511,-5.53483 1.49471,-8.47671c0.63836,-3.03944 1.27672,-6.07888 1.71995,-9.09584c0.41131,-2.86498 0.20349,-5.9552 1.16828,-8.73568c0.4298,-0.98872 0.85961,-1.97745 1.34382,-2.92301c1.8973,-2.8385 4.12103,-5.41803 6.87757,-7.66352c1.26474,-1.03551 2.48633,-2.01662 3.76231,-2.95456c0.14073,-0.06565 0.18389,-0.12005 0.28146,-0.1313c3.30241,-1.36919 6.74735,-2.35936 10.21478,-3.1544c4.71332,-1.13634 9.16367,-0.26512 13.89366,0.03013c2.78809,0.17301 5.67193,-0.10989 8.38676,0.71418c0.66229,0.17083 1.33583,0.43923 1.94553,1.01158z" fill="#fefefe" opacity="0.4"/><path d="M213.21446,152.80612c0.80483,0.54986 1.46894,1.16536 1.85159,1.91217c2.13087,3.90667 2.89651,16.12683 -5.44712,28.65526c-9.86371,14.77973 -21.37734,21.2474 -25.47515,21.71963c-3.80511,0.4385 -9.09584,-1.71995 -12.65466,-4.72059c-1.01846,-2.40363 -1.54909,-4.86348 -1.39494,-6.95735c0.79724,-11.95538 4.52693,-22.91406 13.73668,-30.50031c4.19393,-3.49862 8.33527,-6.59572 13.47839,-8.72078c5.52214,-2.2676 11.29165,-2.38873 15.90521,-1.38803z" fill="#efc25e" opacity="0.7"/></g><g><g><g><g fill="#fefefe"><path d="M183.85655,193.16391c-2.15372,-1.53133 -4.27734,-3.65931 -3.08187,-5.7249c1.19547,-2.06559 4.52943,-1.01628 7.03968,0.17738c-0.76748,0.63219 -1.64196,1.62273 -2.39638,2.79715c-0.67934,0.96805 -1.16355,1.91361 -1.56144,2.75037z"/></g><path d="M185.63379,190.14152c-0.29089,0.4784 -0.96261,0.65468 -1.62491,0.48384c0.30213,-0.38084 0.23467,-0.96624 -0.14617,-1.26837c-0.38084,-0.30213 -0.96624,-0.23467 -1.26837,0.14617l-0.04316,0.05441c-0.19695,-0.42219 -0.29633,-0.85561 -0.09176,-1.22521c0.36597,-0.68478 1.39604,-0.75405 2.24404,-0.2586c0.9024,0.53861 1.3507,1.42615 0.93033,2.06777z" fill="#323a3d"/></g><path d="M175.21555,185.95411c0.98147,-1.34889 1.38698,-2.97742 2.31405,-4.36947c0.42037,-0.64162 1.34526,0.09213 0.92489,0.73375c-0.92707,1.39205 -1.33257,3.02058 -2.31405,4.36947c-0.42037,0.64162 -1.34526,-0.09213 -0.92489,-0.73375z" fill="#323a3d"/></g><g><g><path d="M201.15712,169.56873c-2.45948,-2.03984 -4.55299,-4.76446 -2.73839,-6.60481c1.4149,-1.44827 4.51056,-0.32207 6.84818,1.08921c-0.76748,0.63219 -1.82585,1.74278 -2.70975,3.08042c-0.59302,0.85924 -1.04531,1.65283 -1.40003,2.43518z" fill="#fefefe"/><path d="M202.22166,164.65122c0.80483,0.54986 1.1124,1.50304 0.73519,2.09025c-0.30213,0.38084 -0.83313,0.49146 -1.44102,0.36379c0.15016,-0.41275 0.05078,-0.84618 -0.27565,-1.10515c-0.38084,-0.30213 -0.86867,-0.24591 -1.18205,0.03736c-0.36016,-0.55167 -0.42762,-1.13707 -0.12549,-1.51791c0.42037,-0.64162 1.46169,-0.61333 2.28901,0.13167z" fill="#323a3d"/></g><path d="M192.68696,161.69663c1.2535,-1.13308 2.34379,-2.39564 3.65169,-3.48556c0.54043,-0.45773 1.23826,0.45048 0.65468,0.96261c-1.30791,1.08992 -2.39819,2.35248 -3.65169,3.48556c-0.58359,0.51213 -1.23826,-0.45048 -0.65468,-0.96261z" fill="#323a3d"/></g><path d="M194.80508,189.08463c2.6927,-1.94154 4.78695,-4.35786 6.59793,-7.08755c1.60641,-2.3601 3.11526,-4.70895 3.58097,-7.53078c0.15959,-0.75986 1.36412,-0.60208 1.20453,0.15778c-0.46572,2.82182 -1.92016,5.21384 -3.48341,7.51953c-1.97238,3.04488 -4.22803,5.77638 -7.20219,7.84922c-0.63799,0.46897 -1.29267,-0.49364 -0.69784,-0.90821z" fill="#323a3d"/></g></g></g></g></svg>