<svg version="1.1" xmlns="http://www.w3.org/2000/svg" xmlns:xlink="http://www.w3.org/1999/xlink" width="68.00178" height="30.73107" viewBox="0,0,68.00178,30.73107"><g transform="translate(-225.49824,-272.76895)"><g data-paper-data="{&quot;isPaintingLayer&quot;:true}" fill="#923636" fill-rule="nonzero" stroke="none" stroke-width="0.5" stroke-linecap="butt" stroke-linejoin="miter" stroke-miterlimit="10" stroke-dasharray="" stroke-dashoffset="0" style="mix-blend-mode: normal"><g><path d="M230.40328,272.76896c2.16485,0 3.37401,0.95568 4.04938,2.02327c2.33758,0.37367 4.12377,2.39933 4.12377,4.84218v1.96156c0.69742,0.52307 1.17787,1.07713 1.49645,1.63463c0.26401,0 0.52802,0 0.79203,0c1.58722,0.03658 3.14258,0.45617 4.70863,0.71717c1.77651,0.29608 3.70992,0.22878 5.29213,1.08918c1.34858,0.73336 3.04629,1.34935 3.70418,2.73631c0.17211,0.36283 0.34235,0.74175 0.50247,1.13165c1.10554,0.89909 1.81186,2.27015 1.81197,3.80618c1.1911,0.89467 1.96156,2.3191 1.96156,3.92347c0,2.70834 -2.19555,4.90389 -4.90389,4.90389h-1.96156c-1.20582,0.58346 -2.61715,0.27041 -3.99715,0.09399c-1.55833,0.05969 -3.13391,0.10589 -4.64736,-0.01121c-2.99789,0.11612 -6.0641,0.27631 -8.95232,-0.07574c-0.87412,0.80738 -2.04267,1.30067 -3.32643,1.30067c-2.70834,0 -4.90389,-2.19555 -4.90389,-4.90389v-0.16727c-0.41588,-0.72043 -0.65385,-1.55649 -0.65385,-2.44813v-1.96156c0,-0.81722 -0.01506,-4.19396 0.06333,-4.70863c0.10378,-0.68137 0.54055,-1.28171 0.65385,-1.96156c0.09846,-0.59072 0.16607,-1.19605 0.23932,-1.80189c-0.027,-1.57108 -0.20369,-3.07403 -0.70485,-4.36192l-0.25165,-2.85845c0,0 0,-4.90389 4.90389,-4.90389z"/><path d="M265.05744,273.42281c2.16485,0 3.37401,0.95568 4.04938,2.02327c2.33758,0.37367 4.12377,2.39933 4.12377,4.84218v1.96156c0.69742,0.52306 1.17787,1.07713 1.49646,1.63463c0.26401,0 0.52802,0 0.79202,0c1.58723,0.03659 3.14258,0.45617 4.70863,0.71718c1.77651,0.29608 3.70992,0.22878 5.29213,1.08918c1.34858,0.73336 3.04629,1.34935 3.70418,2.73632c0.17211,0.36282 0.34235,0.74174 0.50247,1.13165c1.10554,0.89909 1.81186,2.27014 1.81197,3.80618c1.1911,0.89467 1.96156,2.3191 1.96156,3.92347c0,2.70834 -2.19555,4.90389 -4.90389,4.90389h-1.96156c-1.20582,0.58346 -2.61714,0.27041 -3.99715,0.09399c-1.55832,0.05969 -3.1339,0.1059 -4.64736,-0.01121c-2.99789,0.11612 -6.0641,0.2763 -8.95232,-0.07574c-0.87412,0.80737 -2.04267,1.30067 -3.32643,1.30067c-2.70834,0 -4.90389,-2.19555 -4.90389,-4.90389v-0.16727c-0.41588,-0.72043 -0.65385,-1.55649 -0.65385,-2.44814v-1.96156c0,-0.81722 -0.01506,-4.19396 0.06333,-4.70863c0.10378,-0.68137 0.54055,-1.28171 0.65385,-1.96156c0.09846,-0.59072 0.16607,-1.19605 0.23932,-1.80189c-0.027,-1.57108 -0.20369,-3.07403 -0.70485,-4.36192l-0.25165,-2.85845c0,0 0,-4.90389 4.90389,-4.90389z"/></g></g></g></svg>