<svg version="1.1" xmlns="http://www.w3.org/2000/svg" xmlns:xlink="http://www.w3.org/1999/xlink" width="80.65711" height="84.05732" viewBox="0,0,80.65711,84.05732"><g transform="translate(-195.63669,-140.02011)"><g data-paper-data="{&quot;isPaintingLayer&quot;:true}" fill-rule="nonzero" stroke-linecap="butt" stroke-linejoin="miter" stroke-miterlimit="10" stroke-dasharray="" stroke-dashoffset="0" style="mix-blend-mode: normal"><g><path d="M222.40405,223.78304c-14.12161,0 -22.95428,-6.72153 -25.17911,-17.35181c-2.57564,-12.30889 6.92491,-20.9062 10.39137,-31.75409c4.97364,-15.56397 -9.9917,-17.68221 -9.9917,-17.68221c20.31647,-2.27456 25.59919,8.12303 27.57711,16.52317c3.5082,14.89519 -12.65617,24.52808 -12.18988,35.32091c0.48227,11.16141 8.19764,13.97063 8.19764,13.97063" fill="#d9824c" stroke="none" stroke-width="1"/><path d="M197.99764,157.06065c19.94345,-2.29587 24.38688,9.04316 24.38688,9.04316l-1.17502,-0.53023l-0.1874,1.62265l-1.41571,-0.80289c0,0 -0.46629,1.78963 -0.59951,1.78963c-0.13322,0 -1.34821,-1.08709 -1.34821,-1.08709l-0.45029,1.90686l-1.59867,-1.22121l-0.71585,1.9566c0,0 -1.18212,-1.57203 -1.31535,-1.57203c-0.13322,0 -1.06578,1.57203 -1.06578,1.57203l-0.71585,-1.25407l-1.51607,1.58891l-0.79934,-1.20433l-0.97697,0.79134c0.86595,-10.83722 -10.68802,-12.57801 -10.50683,-12.59932" fill="#f5ceb8" stroke="none" stroke-width="1"/><path d="M222.40405,223.78304c-14.12161,0 -22.95428,-6.72153 -25.17911,-17.35181c-2.57564,-12.30979 6.92491,-20.9062 10.39137,-31.75409c4.97364,-15.56397 -9.9917,-17.6831 -9.9917,-17.6831c20.31647,-2.27456 25.59919,8.12393 27.57711,16.52317c3.5082,14.89608 -12.65617,24.52898 -12.18988,35.32179c0.48227,11.16141 8.59287,14.14825 8.59287,14.14825" fill="none" stroke="#80432f" stroke-width="0.5"/></g><g><path d="M252.17845,190.49067c-1.38996,-9.04761 7.61501,-8.31132 7.61501,-8.31132l-0.16431,38.54845c0.70342,-0.22558 1.70791,-0.81977 2.58186,-0.4796c1.39617,0.54355 2.90336,3.51264 2.90336,3.51264h-9.05914l-4.22494,-26.64721c2.41666,-1.63864 0.3446,-6.55633 0.3446,-6.55633" fill="#bf6c46" stroke="none" stroke-width="1"/><path d="M259.85919,182.46356c-0.36236,4.34839 -0.27355,38.35394 -0.27355,38.35394c0,0 2.16709,-1.09331 2.99574,-0.38013c1.64663,1.18212 2.53123,3.36787 2.53123,3.36787h-9.05914l-4.22315,-26.69162c2.41666,-1.63953 0.3446,-6.55633 0.3446,-6.55633" fill="none" stroke="#80432f" stroke-width="0.5"/><path d="M262.73414,223.79992c0,0 -0.00622,-0.05152 -0.02221,-0.12257c-0.01155,-0.07283 -0.03997,-0.18119 -0.07815,-0.31174c-0.07815,-0.25934 -0.21227,-0.60306 -0.40411,-0.91657l-0.14477,-0.23448c-0.04352,-0.08083 -0.10924,-0.143 -0.16164,-0.21138c-0.11191,-0.13145 -0.20427,-0.27089 -0.31441,-0.35703c-0.20783,-0.18917 -0.34638,-0.31618 -0.34638,-0.31618c0,0 0.15365,0.10924 0.38457,0.27267c0.12345,0.07372 0.2327,0.20072 0.36415,0.32151c0.06217,0.06305 0.13855,0.12079 0.19362,0.19628l0.17941,0.22293c0.23981,0.30198 0.42631,0.64391 0.54532,0.91213c0.05684,0.135 0.10303,0.24957 0.12878,0.33661c0.02576,0.0826 0.04086,0.12967 0.04086,0.12967z" fill="#80432f" stroke="none" stroke-width="1"/></g><g><path d="M238.8846,167.7833c3.81816,-4.77204 12.56734,-26.89235 12.56734,-26.89235l1.50896,7.31393h8.34951c1.73189,1.24874 4.88483,4.72763 4.88483,4.72763h9.67996c0.93256,3.43359 -2.3083,4.72763 -2.3083,4.72763c0,0 -1.95482,0.71318 -12.43412,3.29948c-3.34123,0.82509 -5.63,0.9965 -7.19848,0.84818c-3.35366,-0.31618 -3.41494,-2.09692 -3.41494,-2.09692" fill="none" stroke="#80432f" stroke-width="0.5"/><path d="M223.07727,198.54443c0,0 9.28562,-20.20634 16.7541,-32.56141c0.9894,-1.63598 11.62058,-25.09206 11.62058,-25.09206l1.41483,7.31393h8.34951c1.73189,1.24962 4.88395,4.72763 4.88395,4.72763h9.68086c0.93256,3.43359 -2.3083,4.72763 -2.3083,4.72763c0,0 -1.92196,0.85085 -12.43501,3.29948c-1.7692,0.41299 -1.51074,0.38013 -2.81189,0.72561c-2.58009,2.14044 1.88822,29.857 -7.15494,40.56367c-0.81799,0.96809 0.32417,20.67972 -0.47339,21.3938h-28.85161c0,0 -1.86246,-17.56764 1.33134,-25.09828" fill="#d9824c" stroke="none" stroke-width="1"/><path d="M241.05525,220.41517c0,0 1.16969,-3.67695 1.45302,-6.36361l4.54201,-4.31286l2.27811,10.36207c0,0 -3.25508,0.64923 -8.27314,0.31441" fill="#aa5e3b" stroke="none" stroke-width="1"/><path d="M236.10912,199.56669c21.154,-9.96151 19.55887,-37.37875 19.6317,-37.72869c0,0 2.55876,-0.28688 2.57919,-0.15276c0.27622,1.77719 12.08864,31.19189 -20.52163,56.17915" fill="#f5ceb8" stroke="none" stroke-width="1"/><path d="M258.29959,161.55114c0,0 12.19876,32.93178 -20.93018,56.62323" fill="none" stroke="#80432f" stroke-width="0.5"/><path d="M255.64847,161.84245c0,0 1.30559,28.62601 -19.61039,37.72424" fill="none" stroke="#80432f" stroke-width="0.5"/><path d="M234.52733,223.78304h-12.90573c-0.01688,-9.71105 -1.43348,-18.72668 1.84825,-26.31416c4.99585,-11.55397 13.86405,-26.94919 15.41477,-29.68559c2.85364,-5.10687 12.56734,-26.89235 12.56734,-26.89235l1.50896,7.31393h8.34951c1.73189,1.24874 4.88483,4.72763 4.88483,4.72763h9.67996c0.93256,3.43359 -2.3083,4.72763 -2.3083,4.72763c0,0 -1.95482,0.71318 -12.43412,3.29948c-3.34123,0.82509 -5.63,0.9965 -7.19848,0.84818c-3.35366,-0.31618 -3.41494,-2.09692 -3.41494,-2.09692" fill="none" stroke="#80432f" stroke-width="0.5"/></g><g><path d="M255.09248,148.20488l4.18674,-6.77838v6.77838" fill="none" stroke="#80432f" stroke-width="0.5"/><path d="M255.09248,148.20488l4.18674,-6.77838v6.77838" fill="#d9824c" stroke="none" stroke-width="1"/><path d="M256.99135,148.20488c0.04441,-0.06662 2.12002,-6.02078 2.12002,-6.02078l0.16786,6.02078z" fill="#f5ceb8" stroke="none" stroke-width="1"/><path d="M259.0865,141.99493l-2.09515,6.20996" fill="none" stroke="#80432f" stroke-width="0.5"/><path d="M255.09248,148.20488l4.18674,-6.77838v6.77838" fill="none" stroke="#80432f" stroke-width="0.5"/></g><g stroke="none" stroke-width="1"><path d="M263.3967,153.55688c-3.98514,0.17852 -4.86263,-1.7168 -4.86263,-1.7168h2.9087c0.51158,0.35615 1.95394,1.7168 1.95394,1.7168" fill="#232020"/><path d="M276.16033,154.8154c-0.01598,0.06483 -2.7435,-0.23003 -2.7435,-2.05873h2.57564c0,0 0.42453,0.97875 0.16786,2.05873" fill="#232020"/><path d="M263.44822,153.53912c-0.70164,-0.49915 -1.36421,-1.04269 -2.01344,-1.60134l0.08615,0.03286c-0.71052,0.0071 -1.42105,-0.00267 -2.13156,-0.01954c-0.71052,-0.02576 -1.42105,-0.04974 -2.13156,-0.11102c0.71052,-0.06217 1.42105,-0.08615 2.13156,-0.11191c0.71052,-0.01688 1.42105,-0.02664 2.13156,-0.01865h0.05062l0.03553,0.03197c0.63503,0.57375 1.25762,1.16348 1.84113,1.79762" fill="#80432f"/></g><g><path d="M244.48617,190.51288c-1.86512,-9.04761 7.17715,-8.31132 7.17715,-8.31132l1.86512,38.54845c0.69187,-0.22558 1.66529,-0.81977 2.5561,-0.4796c1.42548,0.54355 3.08899,3.51264 3.08899,3.51264h-9.05826l-5.6291,-26.64721c2.3314,-1.63864 0,-6.55633 0,-6.55633" fill="#d9824c" stroke="none" stroke-width="1"/><path d="M251.74414,182.48576c-0.13322,4.34839 1.74522,38.35394 1.74522,38.35394c0,0 2.11025,-1.09331 2.9762,-0.38013c1.70881,1.18212 2.70798,3.36787 2.70798,3.36787h-9.05914l-5.62822,-26.69162c2.3314,-1.63953 0,-6.55633 0,-6.55633" fill="none" stroke="#80432f" stroke-width="0.5"/><path d="M256.79506,223.831c0,0 -0.008,-0.05152 -0.02842,-0.12345c-0.01598,-0.07372 -0.05152,-0.18296 -0.09591,-0.31618c-0.09326,-0.26112 -0.24601,-0.60661 -0.45384,-0.92101l-0.1572,-0.23448c-0.04796,-0.08083 -0.11724,-0.1421 -0.17319,-0.21138c-0.11901,-0.13234 -0.2176,-0.27 -0.33217,-0.35615c-0.21582,-0.19007 -0.36058,-0.31618 -0.36058,-0.31618c0,0 0.15898,0.10836 0.39789,0.27089c0.127,0.0746 0.24246,0.19895 0.38101,0.31974c0.06483,0.06395 0.14388,0.11901 0.2025,0.19539l0.19184,0.22115c0.25489,0.29931 0.46006,0.64125 0.59329,0.90858c0.06483,0.135 0.11724,0.24957 0.14832,0.3375c0.03019,0.08171 0.04707,0.12878 0.04707,0.12878z" fill="#80432f" stroke="none" stroke-width="1"/></g><g><path d="M239.85712,220.51553c3.13162,0 6.18953,0.08881 8.59198,-0.17586c0.75847,-0.08348 2.00722,-0.32506 2.00722,-0.32506c1.79051,-0.08438 3.42204,3.81283 3.42204,3.81283h-19.35105c-2.53123,0 -1.53117,-1.94061 -1.53117,-1.94061l0.96542,-3.71247" fill="#d9824c" stroke="none" stroke-width="1"/><path d="M241.15561,220.41606c-0.10036,1.77186 -7.16117,1.27095 -6.99419,-2.2417c0.16608,-3.51175 -6.06163,-12.27515 -6.06163,-12.27515c0,0 8.22251,-8.30688 12.28936,-7.91609c4.1752,0.40144 4.97454,3.67162 0.75492,22.53596" fill="#d9824c" stroke="none" stroke-width="1"/><path d="M239.85712,220.51553c3.13162,0 6.18953,0.08881 8.59198,-0.17586c0.75847,-0.08348 2.00722,-0.32506 2.00722,-0.32506c1.79051,-0.08438 3.42204,3.81283 3.42204,3.81283h-19.35105c-2.1147,0 -1.53117,-1.94061 -1.53117,-1.94061l0.96542,-3.71247" fill="none" stroke="#80432f" stroke-width="0.5"/><path d="M228.71082,205.38676c0,0 7.61146,-7.79442 11.6783,-7.40363c4.1752,0.40144 4.97454,3.67162 0.75492,22.53596" fill="none" stroke="#80432f" stroke-width="0.5"/><path d="M250.7361,223.75818c0,0 0.00267,-0.04619 -0.00089,-0.09858c0.00178,-0.05329 -0.01776,-0.14655 -0.03376,-0.25579c-0.03553,-0.10481 -0.05507,-0.23803 -0.12167,-0.36592c-0.02931,-0.06572 -0.0595,-0.13412 -0.08971,-0.20339l-0.12257,-0.19539c-0.04441,-0.06395 -0.07727,-0.13767 -0.13055,-0.19272c-0.04974,-0.0595 -0.09948,-0.11724 -0.14743,-0.17231c-0.09236,-0.11812 -0.19007,-0.21671 -0.2842,-0.29043c-0.18029,-0.15809 -0.30108,-0.26467 -0.30108,-0.26467c0,0 0.135,0.08793 0.3375,0.21848c0.10569,0.06128 0.21938,0.14565 0.33039,0.25134c0.05772,0.05062 0.11812,0.10303 0.17852,0.15631c0.06395,0.05062 0.10924,0.12079 0.16608,0.18207l0.16076,0.19007c0.04441,0.06928 0.08703,0.13855 0.12967,0.20517c0.09236,0.12967 0.13855,0.27355 0.19539,0.39079c0.03908,0.12522 0.07638,0.2247 0.08703,0.31263c0.01688,0.08615 0.01954,0.12079 0.01865,0.12079z" fill="#80432f" stroke="none" stroke-width="1"/></g><g><path d="M249.76091,150.77697l1.73456,-8.9499l1.46545,6.37782l-3.20001,2.57209" fill="#f5ceb8" stroke="none" stroke-width="1"/><path d="M252.95204,148.20488l-3.3883,2.73107l1.86512,-9.50945" fill="none" stroke="#80432f" stroke-width="0.5"/></g></g></g></svg>