<svg version="1.1" xmlns="http://www.w3.org/2000/svg" xmlns:xlink="http://www.w3.org/1999/xlink" width="100.95839" height="83.863" viewBox="0,0,100.95839,83.863"><g transform="translate(-154.39986,-132.41754)"><g data-paper-data="{&quot;isPaintingLayer&quot;:true}" fill-rule="nonzero" stroke="none" stroke-width="0.95" stroke-linecap="butt" stroke-linejoin="miter" stroke-miterlimit="10" stroke-dasharray="" stroke-dashoffset="0" style="mix-blend-mode: normal"><g><g><path d="M226.19624,187.10137c0.00502,1.40746 -0.79431,2.09684 -1.37097,2.43453c-1.22234,0.72699 -2.45697,0.84987 -3.7298,0.20141c-1.32946,-0.67651 -2.97193,-3.85321 -1.44891,-6.74773c-2.67521,-1.71876 -4.40968,-4.04612 -4.28739,-5.21402c0.01405,-1.09834 1.27844,-2.21299 3.79428,-2.49458c-0.87562,-0.7567 -2.82159,-3.50483 -2.38068,-4.81687c0.44091,-1.3121 2.83228,-1.23581 4.18134,-1.3519c0,0 -4.51956,-3.88126 -3.20694,-6.47451c0.9362,-1.84725 4.06631,-1.224 6.38252,-0.31136c0,0 -8.85018,-6.62314 -6.51602,-9.53672c1.82475,-2.27694 6.40832,0.31242 7.33165,0.76567c-1.43551,-1.94538 -3.84701,-6.65679 -4.5224,-11.26505c-2.25786,-15.39135 11.8978,-9.94793 16.35513,-2.72227c2.56633,4.16227 3.03416,6.47729 3.03416,6.47729c1.06191,2.52877 1.51569,4.90668 1.67447,7.17795c0.35505,5.10467 -0.64344,7.86178 -1.91232,9.08518c-5.47094,5.27915 -13.40056,17.77717 -13.37812,24.79297z" fill="#279afa"/><path d="M226.19624,187.10137c0.00502,1.40746 -0.79431,2.09684 -1.37097,2.43512c-1.22234,0.72699 -2.45697,0.84981 -3.7298,0.20135c-1.32946,-0.67651 -2.97193,-3.85315 -1.44891,-6.74767c0,0 -4.35748,-5.7105 3.65009,-6.05155c0,0 -7.58797,-6.51827 1.85675,-6.26306c0,0 -10.10104,-8.74129 3.59069,-6.19232c0,0 -13.47408,-12.04589 1.61891,-7.64915c0,0 -10.3922,-18.88614 -2.81769,-20.72217c4.25485,-1.03103 10.7159,6.17272 12.26691,9.93334c1.06191,2.52877 1.51569,4.90668 1.67447,7.17795c0.35505,5.10467 -0.64344,7.86178 -1.91232,9.08518c-5.47094,5.27915 -13.40056,17.77717 -13.37812,24.79297z" fill="#0043a5"/></g><path d="M227.70857,200.16878c1.14151,-1.9768 2.6314,-2.84013 4.90101,-3.1189c0.9744,-0.11166 1.67052,-0.08361 2.45024,0.50149c0.71017,0.52895 -0.2754,1.96162 -3.46332,2.51921c3.42689,0.31862 5.2455,0.71076 5.52373,2.04748c0.20921,1.04396 -1.28068,1.60096 -2.33864,1.44785c-2.40814,-0.34779 -5.04013,-1.28068 -6.1817,0.89132c-0.29223,0.55706 -0.41788,1.09947 -1.00239,1.28068c-0.64061,0.19521 -1.42033,-0.20867 -1.50394,-0.89079c-0.13912,-1.21166 0.53237,-1.95772 0.22273,-3.1189c-0.11107,-0.41794 -4.67781,-2.17201 -6.54354,-2.92368c0.91884,-0.22273 2.12997,-1.01645 3.03534,-1.28122c0.61256,-0.18122 3.36908,1.30867 4.90048,2.64545z" fill="#ffa600"/><g><path d="M231.8837,186.15732c-0.17502,1.04054 -0.10823,1.97957 0.17502,2.88778c-2.75032,8.28975 -7.48251,15.5793 -15.43345,18.64771c-4.54259,1.75354 -13.86674,-1.19536 -20.16234,-7.72992c-4.06466,3.26758 -6.81557,5.92088 -11.63527,7.65027c-5.19046,1.86183 -3.51717,-3.318 -2.32175,-5.54947c-2.23147,0.63777 -5.89732,0.31915 -6.61475,-1.19542c-0.73821,-1.55774 0.88684,-2.81876 2.79968,-3.61531c-2.15181,-0.55759 -5.23032,-0.86334 -5.02052,-3.02802c0.22834,-2.36161 2.22084,-2.12264 5.65836,-2.70999c-1.91285,-1.43433 -4.30363,-3.78531 -3.26758,-5.89726c1.11517,-2.23147 6.12507,-3.87565 20.24087,6.53563c4.30304,0.79714 20.20326,-9.96251 26.459,-13.86727c8.16859,-5.10018 17.20329,-8.2 24.54556,-2.07216c0.54861,0.45774 0.99625,0.91547 1.37097,1.3715c-2.3038,-0.99064 -5.08896,-0.74607 -7.60539,-0.10322c-0.56822,0.14532 -1.12356,0.30852 -1.65534,0.48466c-3.42689,1.13537 -5.89732,3.14753 -7.09268,6.53456c-0.2059,0.5828 -0.35228,1.132 -0.44038,1.65593z" fill="#ff0600"/><path d="M239.41676,177.96629c-3.42689,1.13537 -5.89732,3.14747 -7.09215,6.5351c-0.20584,0.5828 -0.35228,1.132 -0.44032,1.65593c-1.05235,0.20867 -3.52113,-0.3074 -5.47661,-2.92032c-1.62281,-2.16811 0.16327,-4.98014 2.7655,-6.1514c4.12524,-1.85286 8.60336,-2.31786 11.89892,0.39603c-0.56822,0.14526 -1.12356,0.30852 -1.65534,0.48466z" fill="#0043a5"/><path d="M249.69731,178.1256c0,0 10.4545,8.96738 2.94896,25.42124c-1.44501,-6.6647 -6.30623,-17.10456 -12.99,-14.82261c-0.27876,2.29146 0.82631,4.49211 3.01792,5.20954c-2.63028,2.09182 -6.50421,0.74778 -8.67622,-1.70305c-0.96484,-1.08766 -1.60545,-2.11479 -1.93977,-3.18733c-0.28272,-0.90762 -0.3495,-1.84666 -0.17449,-2.88719c0.08863,-0.52393 0.23507,-1.07313 0.44038,-1.65593c1.19536,-3.38703 3.66579,-5.3992 7.09268,-6.53456c0.53178,-0.17614 1.08766,-0.33935 1.65534,-0.48466c2.51643,-0.64285 5.30159,-0.88743 7.60539,0.10322c0.35175,0.15146 0.69281,0.32931 1.01981,0.54135z" fill="#ffa600"/></g><path d="M224.59752,208.41927c2.05645,-2.53834 4.35523,-3.42518 7.625,-3.31074c1.40238,0.06058 3.01007,0.60636 3.27933,1.97508c0.48578,2.47102 -5.41933,1.11576 -6.61475,2.31112c4.38275,-0.55812 8.48219,1.93529 8.57643,3.88628c0.06111,1.52242 -2.16864,1.97626 -3.62995,1.52302c-3.32645,-1.03103 -6.83689,-2.93827 -8.9365,-0.12453c-0.53798,0.72192 -0.83694,1.46125 -1.70364,1.58578c-0.94854,0.13238 -1.9605,-0.61309 -1.92572,-1.59588c0.07458,-1.74291 1.58466,-2.73633 1.01308,-4.35807c-0.88518,-2.51082 -5.58655,-4.0248 -8.59438,-5.59718c1.34853,-0.10882 3.40557,-0.8184 4.44274,-1.77485c1.11464,0.39828 4.60264,3.2485 6.46837,5.47997z" fill="#ffa600"/><g><path d="M237.59869,178.76957c2.6438,2.9646 -1.81075,7.35633 -5.73518,4.43991c-1.53193,-1.13873 -1.28122,-3.34215 -0.41623,-4.32606c1.4136,-1.60881 4.58298,-1.87358 6.1514,-0.11384z" fill="#ffffff"/><path d="M236.63834,180.39409c0.35003,0 0.667,0.1279 0.8964,0.33433c0.22946,0.20643 0.37135,0.49139 0.37135,0.80606c0,0.31472 -0.14189,0.59969 -0.37135,0.80612c-0.2294,0.20643 -0.54637,0.33433 -0.8964,0.33433c-0.35003,0 -0.66694,-0.1279 -0.8964,-0.33433c-0.2294,-0.20643 -0.37135,-0.49139 -0.37135,-0.80612c0,-0.31466 0.14195,-0.59963 0.37135,-0.80606c0.22946,-0.20643 0.54637,-0.33433 0.8964,-0.33433z" fill="#272525"/></g><g><path d="M221.10669,184.02682c1.68286,0.91264 1.98524,2.31502 2.01329,3.22435c0.06956,1.93245 -0.58788,3.48688 -2.19167,4.58239c-1.67388,1.14546 -6.5351,1.03611 -8.99709,-2.66842c-3.79375,2.07104 -7.70247,2.62414 -9.01675,1.71651c-1.30141,-0.73207 -1.80686,-2.96691 -0.5032,-6.15312c-1.47471,0.55086 -6.02238,1.08211 -7.30077,-0.29896c-1.27844,-1.38166 0.37135,-4.1853 1.11234,-5.87093c0,0 -7.57847,2.8631 -9.81667,-0.39379c-1.59476,-2.32122 1.18869,-5.6505 3.78814,-7.81968c0,0 -13.67212,6.24564 -15.6276,1.55998c-1.52803,-3.66131 4.54991,-7.44384 5.69254,-8.25049c-3.25742,0.44486 -10.4522,0.2519 -16.39156,-1.94538c-19.83917,-7.33838 -4.11627,-20.68285 7.4113,-21.29204c6.63996,-0.35062 9.70784,0.60075 9.70784,0.60075c3.71014,0.38033 6.84303,1.38839 9.65736,2.68023c6.32359,2.90237 8.96178,5.89171 9.59565,8.20284c2.73349,9.96978 12.47948,27.57919 20.86684,32.12574z" fill="#279afa"/><path d="M221.10669,184.02682c1.68286,0.91264 1.98524,2.31502 2.01329,3.22323c0.06956,1.93245 -0.58788,3.48688 -2.19167,4.58239c-1.67388,1.14546 -6.5351,1.03611 -8.99709,-2.66842c0,0 -9.65399,1.47696 -4.84214,-8.30044c0,0 -12.72464,4.80683 -6.26359,-6.2989c0,0 -17.0154,6.35783 -5.04857,-8.32064c0,0 -23.15836,8.22752 -8.07323,-6.9182c0,0 -29.31201,0.092 -26.5667,-10.14373c1.54262,-5.74976 14.35141,-8.76485 19.84986,-8.1641c3.71014,0.38033 6.84303,1.38839 9.65736,2.68023c6.32359,2.90237 8.96178,5.89171 9.59565,8.20284c2.73349,9.96978 12.47948,27.57919 20.86684,32.12574z" fill="#0043a5"/></g></g></g></g></svg>