<svg version="1.1" xmlns="http://www.w3.org/2000/svg" xmlns:xlink="http://www.w3.org/1999/xlink" width="82.40969" height="49.51047" viewBox="0,0,82.40969,49.51047"><defs><linearGradient x1="203.76113" y1="178.73695" x2="286.16991" y2="178.73695" gradientUnits="userSpaceOnUse" id="color-1"><stop offset="0.012" stop-color="#a7a9ac"/><stop offset="1" stop-color="#414042"/></linearGradient><linearGradient x1="207.43466" y1="178.67084" x2="282.75581" y2="178.67084" gradientUnits="userSpaceOnUse" id="color-2"><stop offset="0" stop-color="#d4d4d4"/><stop offset="1" stop-color="#a4a5a8"/></linearGradient></defs><g transform="translate(-203.76031,-153.98153)"><g data-paper-data="{&quot;isPaintingLayer&quot;:true}" fill-rule="nonzero" stroke="none" stroke-width="1" stroke-linecap="butt" stroke-linejoin="miter" stroke-miterlimit="10" stroke-dasharray="" stroke-dashoffset="0" style="mix-blend-mode: normal"><path d="M286.17,195.69939c0,4.30337 -3.49015,7.79261 -7.79261,7.79261h-66.82537c-4.30337,0 -7.7917,-3.49015 -7.7917,-7.79261v-33.92616c0,-4.30337 3.48834,-7.7917 7.7917,-7.7917h66.82446c4.30518,0 7.79261,3.48834 7.79261,7.7917v33.92616z" fill="url(#color-1)"/><path d="M282.755,161.90935v33.52244c0,2.56103 -2.08229,4.64421 -4.64511,4.64421h-66.03102c-2.56013,0 -4.64421,-2.08318 -4.64421,-4.64421v-33.52333c0,-2.56103 2.08408,-4.64421 4.64421,-4.64421h66.03102c2.56282,0 4.64511,2.08408 4.64511,4.64511z" fill="url(#color-2)"/></g></g></svg>