<svg version="1.1" xmlns="http://www.w3.org/2000/svg" xmlns:xlink="http://www.w3.org/1999/xlink" width="349.43742" height="164.28302" viewBox="0,0,349.43742,164.28302"><defs><linearGradient x1="182.6617" y1="54.94303" x2="155.3383" y2="149.05697" gradientUnits="userSpaceOnUse" id="color-1"><stop offset="0" stop-color="#3a7fe3"/><stop offset="1" stop-color="#60cae3"/></linearGradient><linearGradient x1="-106.5" y1="209" x2="-106.5" y2="215" gradientUnits="userSpaceOnUse" id="color-2"><stop offset="0" stop-color="#3a7fe3"/><stop offset="1" stop-color="#60cae3"/></linearGradient></defs><g transform="translate(109,-50.71698)"><g data-paper-data="{&quot;isPaintingLayer&quot;:true}" fill-rule="nonzero" stroke="none" stroke-linecap="butt" stroke-linejoin="miter" stroke-miterlimit="10" stroke-dasharray="" stroke-dashoffset="0" style="mix-blend-mode: normal"><g fill="none" stroke-width="1" font-family="sans-serif" font-weight="normal" font-size="12" text-anchor="start"/><path d="" fill="#000000" stroke-width="0.5"/><path d="" fill="#000000" stroke-width="0.5"/><path d="" fill="#000000" stroke-width="0.5"/><path d="" fill="#000000" stroke-width="0.5"/><path d="" fill="#000000" stroke-width="0.5"/><path d="" fill="#000000" stroke-width="0.5"/><path d="M239.10527,122.35314c-7.54515,25.98884 -45.0489,37.94455 -83.76697,26.70382c-38.71807,-11.24073 -63.98872,-41.42127 -56.44358,-67.41011c7.54515,-25.98884 45.0489,-37.94455 83.76697,-26.70382c38.71807,11.24073 63.98872,41.42127 56.44358,67.41011z" fill="url(#color-1)" stroke-width="0"/><path d="M-109,212c0,1.65685 1.11929,3 2.5,3c1.38071,0 2.5,-1.34315 2.5,-3c0,-1.65685 -1.11929,-3 -2.5,-3c-1.38071,0 -2.5,1.34315 -2.5,3z" fill="url(#color-2)" stroke-width="0"/></g></g></svg>