<svg version="1.1" xmlns="http://www.w3.org/2000/svg" xmlns:xlink="http://www.w3.org/1999/xlink" width="114.15978" height="49.12537" viewBox="0,0,114.15978,49.12537"><g transform="translate(-145.9308,-191.84438)"><g data-paper-data="{&quot;isPaintingLayer&quot;:true}" fill-rule="evenodd" stroke-linecap="butt" stroke-linejoin="miter" stroke-miterlimit="10" stroke-dasharray="" stroke-dashoffset="0" style="mix-blend-mode: normal"><path d="M245.0666,238.4076c0,0 1.6328,-0.1006 3.2662,-0.16c0.4079,-0.0203 0.8158,-0.0477 1.1989,-0.0556c0.3825,0.0059 0.7397,0.0223 1.0461,0.0556c0.6121,0.0646 1.0206,0.16 1.0206,0.16v0.0457c0,0 -0.4085,0.0954 -1.0206,0.1601c-0.3064,0.0339 -0.6636,0.0503 -1.0461,0.0555c-0.3831,-0.0078 -0.791,-0.0346 -1.1989,-0.0555c-1.6334,-0.0588 -3.2662,-0.1601 -3.2662,-0.1601z" fill="#e7a06b" stroke="none" stroke-width="1"/><path d="M244.53045,202.80932l7.10409,21.20896c0,0 1.47104,4.54716 0.02372,8.74163c-1.44738,4.19489 -6.90605,8.76978 -14.0761,7.84553c-6.04794,-0.7796 7.18667,-1.12362 7.97604,-7.03578c0.78937,-5.91185 -5.71957,-30.84911 -5.71957,-30.84911c0,0 3.12126,-0.01031 4.69181,0.08877" fill="#f4c5a6" stroke="none" stroke-width="1"/><path d="M220.18216,223.59957c-0.10697,0.08361 -3.14929,-0.64842 -4.10206,2.23736c-0.51433,1.55878 -1.17702,9.58227 -3.6356,11.61825c-2.29828,1.90323 -3.34703,3.54604 -8.49268,3.21312c-4.95659,-0.32024 -4.51889,-1.46207 -4.42017,-1.33526c0.09866,0.12723 7.56,0.06656 7.98745,-2.87304c0.42745,-2.93966 2.26909,-14.49967 8.02537,-14.49967c5.75628,0 6.11784,0.48309 4.63769,1.63923" fill="#f4c5a6" stroke="none" stroke-width="1"/><path d="M244.53045,202.80932c0,0 6.5863,19.26647 6.98099,20.75275c0.39469,1.48627 2.51616,8.3231 -2.36817,13.17831c-4.88439,4.85515 -10.2128,3.72794 -11.34758,3.80008" fill="none" stroke="#e7a06b" stroke-width="0.5"/><path d="M182.65319,222.6704c-0.10697,0.08367 -2.88402,-1.11962 -3.83643,1.76574c-0.5147,1.5592 -0.42393,10.42291 -2.88251,12.45932c-2.29834,1.9028 -3.09796,2.74896 -8.1398,1.66538c-4.11947,-0.88542 -3.84001,-3.4168 -3.74135,-3.29c0.09866,0.12681 6.70158,2.75018 7.1294,-0.18942c0.42745,-2.93966 2.26915,-14.49973 8.02537,-14.49973c5.75585,0 4.92547,0.93262 3.44532,2.08871" fill="#f4c5a6" stroke="none" stroke-width="1"/><path d="M220.28585,223.78511c0,0 -2.916,-1.06532 -4.14944,1.90723c-1.23344,2.97291 -0.22182,11.98964 -7.84462,14.56586c-3.65095,1.28805 -9.09457,-0.52871 -9.09457,-0.52871" fill="none" stroke="#e7a06b" stroke-width="0.5"/><path d="M182.9477,223.04664c0,0 -3.60004,-2.30829 -4.32394,2.24962c-0.60978,3.84134 0.36192,9.21489 -3.73304,12.63333c-3.05889,2.47708 -8.63399,0.34675 -10.49536,-0.79149" fill="none" stroke="#e7a06b" stroke-width="0.5"/><path d="M241.42181,206.97637c0,0 1.14698,-0.06104 2.29397,-0.09714c0.28693,-0.01226 0.57386,-0.02894 0.84264,-0.03325c0.26879,0.00316 0.51986,0.01304 0.73495,0.03325c0.42982,0.03926 0.71674,0.09714 0.71674,0.09714v0.02773c0,0 -0.28693,0.05788 -0.71674,0.09708c-0.21509,0.02063 -0.46616,0.03052 -0.73495,0.03331c-0.26879,-0.00437 -0.55571,-0.02063 -0.84264,-0.03331c-1.14698,-0.03568 -2.29397,-0.09708 -2.29397,-0.09708z" fill="#e7a06b" stroke="none" stroke-width="1"/><path d="M242.75737,211.13788c0,0 1.14698,-0.06104 2.29397,-0.09708c0.28693,-0.01232 0.57392,-0.02894 0.8427,-0.03331c0.26879,0.00322 0.5198,0.01311 0.73489,0.03331c0.42982,0.03926 0.7168,0.09708 0.7168,0.09708v0.02779c0,0 -0.28699,0.05782 -0.7168,0.09708c-0.21509,0.02063 -0.4661,0.03052 -0.73489,0.03331c-0.26879,-0.00437 -0.55578,-0.02063 -0.8427,-0.03331c-1.14698,-0.03568 -2.29397,-0.09708 -2.29397,-0.09708z" fill="#e7a06b" stroke="none" stroke-width="1"/><path d="M243.99082,214.87839c0,0 1.14698,-0.06104 2.29397,-0.09714c0.28693,-0.01226 0.57386,-0.02894 0.84264,-0.03331c0.26879,0.00322 0.51986,0.01311 0.73495,0.03331c0.42982,0.03926 0.71674,0.09714 0.71674,0.09714v0.02773c0,0 -0.28693,0.05788 -0.71674,0.09708c-0.21509,0.02063 -0.46616,0.03052 -0.73495,0.03331c-0.26879,-0.00437 -0.55571,-0.02063 -0.84264,-0.03331c-1.14698,-0.03568 -2.29397,-0.09708 -2.29397,-0.09708z" fill="#e7a06b" stroke="none" stroke-width="1"/><path d="M245.42158,218.99039c0,0 1.14698,-0.06104 2.29397,-0.09714c0.28693,-0.01226 0.57392,-0.02888 0.8427,-0.03325c0.26879,0.00316 0.5198,0.01304 0.73489,0.03325c0.42982,0.03926 0.7168,0.09714 0.7168,0.09714v0.02773c0,0 -0.28699,0.05788 -0.7168,0.09708c-0.21509,0.02063 -0.4661,0.03052 -0.73489,0.03331c-0.26879,-0.00437 -0.55578,-0.02063 -0.8427,-0.03331c-1.14698,-0.03562 -2.29397,-0.09708 -2.29397,-0.09708z" fill="#e7a06b" stroke="none" stroke-width="1"/><path d="M246.03481,223.17673c0,0 1.3412,-0.06104 2.68313,-0.09714c0.3351,-0.01226 0.67063,-0.02894 0.98517,-0.03325c0.3146,0.00316 0.60783,0.01304 0.85969,0.03325c0.50281,0.03926 0.83833,0.09714 0.83833,0.09714v0.02773c0,0 -0.33553,0.05788 -0.83833,0.09708c-0.25186,0.02063 -0.5451,0.03052 -0.85969,0.03331c-0.31453,-0.00437 -0.65006,-0.02063 -0.98517,-0.03331c-1.34193,-0.03562 -2.68313,-0.09708 -2.68313,-0.09708z" fill="#e7a06b" stroke="none" stroke-width="1"/><path d="M246.75022,227.46215c0,0 1.34114,-0.06104 2.68313,-0.09714c0.3351,-0.01226 0.67057,-0.02888 0.98517,-0.03325c0.3146,0.00316 0.60783,0.01304 0.85963,0.03325c0.50287,0.03926 0.83833,0.09714 0.83833,0.09714v0.02773c0,0 -0.33547,0.05788 -0.83833,0.09708c-0.2518,0.02063 -0.54504,0.03052 -0.85963,0.03331c-0.3146,-0.00437 -0.65006,-0.02063 -0.98517,-0.03331c-1.34199,-0.03562 -2.68313,-0.09708 -2.68313,-0.09708z" fill="#e7a06b" stroke="none" stroke-width="1"/><path d="M246.75022,231.5494c0,0 1.34114,-0.06104 2.68313,-0.09714c0.3351,-0.01226 0.67057,-0.02894 0.98517,-0.03325c0.3146,0.00316 0.60783,0.01304 0.85963,0.03325c0.50287,0.03926 0.83833,0.09714 0.83833,0.09714v0.02773c0,0 -0.33547,0.05788 -0.83833,0.09708c-0.2518,0.02063 -0.54504,0.03052 -0.85963,0.03331c-0.3146,-0.00437 -0.65006,-0.02063 -0.98517,-0.03331c-1.34199,-0.03568 -2.68313,-0.09708 -2.68313,-0.09708z" fill="#e7a06b" stroke="none" stroke-width="1"/><path d="M245.71415,235.63665c0,0 1.07393,-0.06104 2.1475,-0.09714c0.26879,-0.01226 0.53757,-0.02894 0.78901,-0.03331c0.2518,0.00322 0.48667,0.01311 0.68835,0.03331c0.40221,0.03926 0.671,0.09714 0.671,0.09714v0.02773c0,0 -0.26879,0.05788 -0.671,0.09708c-0.20168,0.02063 -0.43655,0.03052 -0.68835,0.03331c-0.25143,-0.00437 -0.52022,-0.02063 -0.78901,-0.03331c-1.07357,-0.03568 -2.1475,-0.09708 -2.1475,-0.09708z" fill="#e7a06b" stroke="none" stroke-width="1"/><path d="M243.22183,238.68347c0,0 0.8387,-0.06104 1.67782,-0.09708c0.20957,-0.01232 0.4192,-0.02894 0.61615,-0.03331c0.19695,0.00316 0.38006,0.01311 0.53757,0.03331c0.31453,0.03926 0.52416,0.09708 0.52416,0.09708v0.02779c0,0 -0.20963,0.05782 -0.52416,0.09708c-0.15751,0.02063 -0.34062,0.03052 -0.53757,0.03331c-0.19695,-0.00437 -0.40658,-0.02063 -0.61615,-0.03331c-0.83912,-0.03568 -1.67782,-0.09708 -1.67782,-0.09708z" fill="#e7a06b" stroke="none" stroke-width="1"/><path d="M212.44432,224.25831c0,0 1.14698,-0.06104 2.29397,-0.09708c0.28699,-0.01232 0.57392,-0.02894 0.8427,-0.03331c0.26879,0.00316 0.5198,0.01311 0.73489,0.03331c0.42988,0.03926 0.7168,0.09708 0.7168,0.09708v0.02779c0,0 -0.28693,0.05782 -0.7168,0.09708c-0.21509,0.02063 -0.4661,0.03052 -0.73489,0.03331c-0.26879,-0.00437 -0.55571,-0.02063 -0.8427,-0.03331c-1.14698,-0.03568 -2.29397,-0.09708 -2.29397,-0.09708z" fill="#e7a06b" stroke="none" stroke-width="1"/><path d="M211.32616,226.99981c0,0 1.14698,-0.06104 2.29397,-0.09708c0.28693,-0.01232 0.57392,-0.02894 0.8427,-0.03331c0.26879,0.00316 0.5198,0.01304 0.73489,0.03331c0.42982,0.0392 0.7168,0.09708 0.7168,0.09708v0.02773c0,0 -0.28699,0.05788 -0.7168,0.09714c-0.21509,0.02057 -0.4661,0.03052 -0.73489,0.03325c-0.26879,-0.00437 -0.55578,-0.02057 -0.8427,-0.03325c-1.14698,-0.03568 -2.29397,-0.09714 -2.29397,-0.09714z" fill="#e7a06b" stroke="none" stroke-width="1"/><path d="M210.47083,230.66592c0,0 1.14698,-0.06104 2.29397,-0.09708c0.28699,-0.01232 0.57392,-0.02894 0.8427,-0.03331c0.26879,0.00316 0.5198,0.01311 0.73495,0.03331c0.42982,0.03926 0.71674,0.09708 0.71674,0.09708v0.02779c0,0 -0.28693,0.05782 -0.71674,0.09708c-0.21515,0.02063 -0.46616,0.03052 -0.73495,0.03331c-0.26879,-0.00437 -0.55571,-0.02063 -0.8427,-0.03331c-1.14698,-0.03568 -2.29397,-0.09708 -2.29397,-0.09708z" fill="#e7a06b" stroke="none" stroke-width="1"/><path d="M209.82138,234.2659c0,0 1.0874,-0.06104 2.17474,-0.09714c0.272,-0.01226 0.54394,-0.02888 0.79847,-0.03367c0.25538,0.00358 0.49298,0.01347 0.69709,0.03367c0.40767,0.03926 0.67967,0.09714 0.67967,0.09714v0.02773c0,0 -0.272,0.05788 -0.67967,0.09708c-0.20411,0.02063 -0.44171,0.03052 -0.69709,0.03373c-0.25453,-0.00479 -0.52647,-0.02105 -0.79847,-0.03373c-1.08734,-0.03562 -2.17474,-0.09708 -2.17474,-0.09708z" fill="#e7a06b" stroke="none" stroke-width="1"/><path d="M208.57556,237.27152c0,0 0.96702,-0.06104 1.93405,-0.09708c0.24233,-0.01232 0.48388,-0.02894 0.71043,-0.03331c0.22656,0.00316 0.43855,0.01311 0.62009,0.03331c0.36235,0.0392 0.60425,0.09708 0.60425,0.09708v0.02773c0,0 -0.24191,0.05788 -0.60425,0.09714c-0.18154,0.02063 -0.39353,0.03052 -0.62009,0.03331c-0.22656,-0.00437 -0.4681,-0.02063 -0.71043,-0.03331c-0.96702,-0.03568 -1.93405,-0.09714 -1.93405,-0.09714z" fill="#e7a06b" stroke="none" stroke-width="1"/><path d="M175.598,223.06928c0,0 0.99069,-0.06098 1.98174,-0.09708c0.24749,-0.01226 0.49498,-0.02894 0.72742,-0.03367c0.23208,0.00358 0.44881,0.01347 0.63471,0.03367c0.37181,0.03926 0.61924,0.09708 0.61924,0.09708v0.02779c0,0 -0.24743,0.05782 -0.61924,0.09708c-0.18591,0.02063 -0.40263,0.03052 -0.63471,0.03367c-0.23244,-0.00473 -0.47993,-0.02099 -0.72742,-0.03367c-0.99105,-0.03568 -1.98174,-0.09708 -1.98174,-0.09708z" fill="#e7a06b" stroke="none" stroke-width="1"/><path d="M174.58249,225.74482c0,0 0.99069,-0.06104 1.9818,-0.09714c0.24749,-0.01226 0.49534,-0.02894 0.72742,-0.03331c0.23208,0.00322 0.44875,0.01311 0.63465,0.03331c0.37181,0.03926 0.6193,0.09714 0.6193,0.09714v0.02773c0,0 -0.24749,0.05782 -0.6193,0.09708c-0.18591,0.02063 -0.40257,0.03052 -0.63465,0.03331c-0.23208,-0.00437 -0.47993,-0.02063 -0.72742,-0.03331c-0.99111,-0.03568 -1.9818,-0.09708 -1.9818,-0.09708z" fill="#e7a06b" stroke="none" stroke-width="1"/><path d="M174.37287,229.0475c0,0 0.99069,-0.06104 1.98174,-0.09714c0.24749,-0.01226 0.49498,-0.02888 0.72742,-0.03367c0.23208,0.00358 0.44881,0.01347 0.63471,0.03367c0.37139,0.03926 0.61924,0.09714 0.61924,0.09714v0.02773c0,0 -0.24785,0.05788 -0.61924,0.09708c-0.18591,0.02063 -0.40263,0.03052 -0.63471,0.03373c-0.23244,-0.00479 -0.47993,-0.02099 -0.72742,-0.03373c-0.99105,-0.03562 -1.98174,-0.09708 -1.98174,-0.09708z" fill="#e7a06b" stroke="none" stroke-width="1"/><path d="M173.8629,232.54021c0,0 0.99069,-0.06104 1.9818,-0.09708c0.24743,-0.01232 0.49534,-0.02894 0.72742,-0.03331c0.23208,0.00316 0.44875,0.01311 0.63465,0.03331c0.37181,0.03926 0.6193,0.09708 0.6193,0.09708v0.02779c0,0 -0.24749,0.05782 -0.6193,0.09708c-0.18591,0.02063 -0.40257,0.03052 -0.63465,0.03331c-0.23208,-0.00437 -0.47999,-0.02063 -0.72742,-0.03331c-0.99111,-0.03568 -1.9818,-0.09708 -1.9818,-0.09708z" fill="#e7a06b" stroke="none" stroke-width="1"/><path d="M172.95054,235.25695c0,0 0.99069,-0.06104 1.9818,-0.09714c0.24749,-0.01226 0.49534,-0.02894 0.72742,-0.03325c0.23208,0.00316 0.44875,0.01304 0.63465,0.03325c0.37181,0.03926 0.6193,0.09714 0.6193,0.09714v0.02773c0,0 -0.24749,0.05788 -0.6193,0.09708c-0.18591,0.02063 -0.40257,0.03052 -0.63465,0.03331c-0.23208,-0.00437 -0.47993,-0.02063 -0.72742,-0.03331c-0.99111,-0.03568 -1.9818,-0.09708 -1.9818,-0.09708z" fill="#e7a06b" stroke="none" stroke-width="1"/><path d="M170.6232,237.59977c0,0 1.12727,-0.04563 2.25453,-0.0662c0.28183,-0.00837 0.5636,-0.02105 0.82766,-0.02221c0.26405,0.0071 0.51039,0.0202 0.72111,0.04356c0.42235,0.04484 0.70297,0.10667 0.70297,0.10667l-0.00036,0.02809c0,0 -0.28226,0.05394 -0.70534,0.08719c-0.21157,0.01747 -0.45827,0.02378 -0.72233,0.02342c-0.26405,-0.00795 -0.54546,-0.02815 -0.82687,-0.04478c-1.12605,-0.05115 -2.25174,-0.12802 -2.25174,-0.12802z" fill="#e7a06b" stroke="none" stroke-width="1"/><path d="M258.91642,210.04623c-0.14798,0.23105 -0.67415,1.2548 -2.00625,1.2548c-1.3321,0 -1.97349,-1.12284 -1.97349,-1.98168c0,-0.85848 0.44401,-1.65119 1.36487,-2.43589c0.92085,-0.7844 1.95729,-1.42845 1.95729,-2.45221c0,-1.02412 -0.92122,-1.81756 -0.92122,-1.81756" fill="none" stroke="#ea7b61" stroke-width="0.65"/><path d="M258.70212,210.00134c0.00194,-0.00874 0.04575,-0.0634 0.0955,-0.18433c0.02918,-0.05825 0.0466,-0.13154 0.07536,-0.20927c0.01304,-0.07924 0.04223,-0.16607 0.04581,-0.25404c0.00316,-0.08755 0.01857,-0.17996 0.002,-0.26278c-0.01347,-0.0824 -0.00953,-0.16801 -0.0375,-0.23105c-0.04308,-0.13397 -0.07226,-0.22352 -0.07226,-0.22352l0.12948,0.20053c0.04617,0.05867 0.06474,0.14192 0.10181,0.2271c0.04108,0.08561 0.05133,0.1839 0.07384,0.28298c0.02166,0.09908 0.01656,0.19974 0.02403,0.29609c-0.0071,0.09392 -0.00589,0.18548 -0.0213,0.26157c-0.01893,0.15296 -0.06158,0.26715 -0.05685,0.25884z" fill="#ea7b61" stroke="none" stroke-width="1"/><path d="M258.70485,210.00965c-0.004,0.00874 0.06431,-0.09235 0.17717,-0.19616c0.05333,-0.05631 0.1279,-0.10824 0.20016,-0.16886c0.08324,-0.04915 0.16182,-0.11176 0.25532,-0.15102c0.09277,-0.03926 0.17881,-0.08719 0.27194,-0.10345c0.0904,-0.0182 0.16898,-0.05151 0.24355,-0.04757c0.14289,-0.00595 0.2376,-0.00989 0.2376,-0.00989c0,0 -0.08956,0.02773 -0.2234,0.07014c-0.06747,0.01311 -0.13458,0.06577 -0.20914,0.10309c-0.077,0.03404 -0.14289,0.09987 -0.21236,0.15338c-0.06947,0.05309 -0.12317,0.1276 -0.18002,0.18427c-0.04654,0.0682 -0.09587,0.12487 -0.1259,0.18269c-0.06984,0.11061 -0.08919,0.17796 -0.09508,0.18469z" fill="#ea7b61" stroke="none" stroke-width="1"/><path d="M239.81989,202.64538c0,0 0.69945,2.85605 3.45206,12.09824c2.74472,9.21689 3.00956,13.3269 3.15754,15.45723c0.14804,2.13033 -0.54267,9.31397 -7.89395,10.25533c-7.35122,0.9413 -11.39685,-7.38186 -13.61704,-11.14706c-2.22013,-3.76526 -3.7496,-6.39099 -8.83131,-6.49007c-5.08176,-0.09908 -5.82181,6.49007 -5.96979,8.3231c-0.14804,1.83309 -0.4934,8.96722 -7.40061,8.96722c-6.90715,0 -8.14059,-3.17071 -12.82761,-9.95802c-4.68702,-6.78731 -9.45934,-9.25888 -12.60584,-8.39724c-2.98468,0.81722 -2.86158,4.35974 -3.05889,6.4405c-0.19737,2.08076 0.13142,7.61643 -3.56885,9.05319c-5.51825,2.14301 -10.19186,-1.61867 -13.94583,-8.55779c-6.98099,-12.906 -10.52897,-26.12945 -10.52897,-26.12945c0,0 13.36603,29.22565 20.71725,28.82933c3.37549,-0.1819 2.12153,-10.20576 2.12153,-10.20576c0,0 -0.93742,-7.65411 6.3396,-10.13161c8.94228,-3.04348 16.20746,5.17739 18.37826,8.24902c2.17086,3.07163 4.88439,9.48756 8.28864,9.19031c3.40431,-0.29724 2.19531,-3.81477 2.8367,-7.57996c0.64139,-3.76526 3.02418,-8.19514 10.38566,-8.49675c6.04363,-0.24767 12.08763,1.98174 15.98521,8.17451c3.89765,6.19283 4.90927,8.95369 7.17957,8.77136c2.46683,-0.19816 1.99715,-2.47945 1.45442,-5.84838c-0.54267,-3.36887 -6.07081,-23.71534 -6.90715,-26.60422c-0.78901,-2.72488 -0.08331,-3.08947 0.06626,-3.30274c0.14962,-0.21363 1.14425,-0.73913 2.131,-1.27458c0.98674,-0.53509 2.02324,0.00431 2.02324,0.00431c0,0 20.15201,7.44648 21.43478,7.94188c1.28277,0.4954 0.93742,0.89173 0,1.48627c-0.93742,0.59449 -1.44696,0.95792 -1.8255,1.04038c-0.37849,0.08246 -10.16341,0 -14.89975,0c-4.73641,0 -5.42712,-2.08076 -5.42712,-2.08076" fill="#4b9095" stroke="none" stroke-width="1"/><path d="M244.67917,197.43323c-0.24391,1.56988 -2.14671,2.57538 -4.25047,2.24604c-2.10412,-0.32976 -3.6123,-1.86913 -3.36833,-3.43944c0.24391,-1.56988 2.14714,-2.5758 4.25168,-2.24604c2.10291,0.32934 3.61108,1.86949 3.36711,3.43944" fill="#fbac77" stroke="none" stroke-width="1"/><path d="M239.81989,202.64538c0,0 0.69945,2.85605 3.45206,12.09824c2.74472,9.21689 3.00956,13.3269 3.15754,15.45723c0.14804,2.13033 -0.54267,9.31397 -7.89395,10.25533c-7.35122,0.9413 -11.39685,-7.38186 -13.61704,-11.14706c-2.22013,-3.76526 -3.7496,-6.39099 -8.83131,-6.49007c-5.08176,-0.09908 -5.82181,6.49007 -5.96979,8.3231c-0.14804,1.83309 -0.4934,8.96722 -7.40061,8.96722c-6.90715,0 -8.14059,-3.17071 -12.82761,-9.95802c-4.68702,-6.78731 -9.45934,-9.25888 -12.60584,-8.39724c-2.98468,0.81722 -2.86158,4.35974 -3.05889,6.4405c-0.19737,2.08076 0.13142,7.61643 -3.56885,9.05319c-5.51825,2.14301 -10.19186,-1.61867 -13.94583,-8.55779c-6.98099,-12.906 -10.52897,-26.12945 -10.52897,-26.12945c0,0 13.36603,29.22565 20.71725,28.82933c3.37549,-0.1819 2.12153,-10.20576 2.12153,-10.20576c0,0 -0.93742,-7.65411 6.3396,-10.13161c8.94228,-3.04348 16.20746,5.17739 18.37826,8.24902c2.17086,3.07163 4.88439,9.48756 8.28864,9.19031c3.40431,-0.29724 2.19531,-3.81477 2.8367,-7.57996c0.64139,-3.76526 3.02418,-8.19514 10.38566,-8.49675c6.04363,-0.24767 12.08763,1.98174 15.98521,8.17451c3.89765,6.19283 4.90927,8.95369 7.17957,8.77136c2.46683,-0.19816 1.99715,-2.47945 1.45442,-5.84838c-0.54267,-3.36887 -6.07081,-23.71534 -6.90715,-26.60422c-0.78901,-2.72488 -0.08331,-3.08947 0.06626,-3.30274c0.14962,-0.21363 1.14425,-0.73913 2.131,-1.27458c0.98674,-0.53509 2.02324,0.00431 2.02324,0.00431c0,0 20.15201,7.44648 21.43478,7.94188c1.28277,0.4954 0.93742,0.89173 0,1.48627c-0.93742,0.59449 -1.44696,0.95792 -1.8255,1.04038c-0.37849,0.08246 -10.16341,0 -14.89975,0c-4.73641,0 -5.42712,-2.08076 -5.42712,-2.08076" fill="none" stroke="#2b535a" stroke-width="0.5"/><path d="M244.67917,197.43323c-0.24391,1.56988 -2.14671,2.57538 -4.25047,2.24604c-2.10412,-0.32976 -3.6123,-1.86913 -3.36833,-3.43944c0.24391,-1.56988 2.14714,-2.5758 4.25168,-2.24604c2.10291,0.32934 3.61108,1.86949 3.36711,3.43944z" fill="none" stroke="#2b535a" stroke-width="0.5"/><path d="M245.18337,197.35526c0,0 0.00237,0.13397 -0.03198,0.36502c-0.01656,0.11492 -0.0418,0.25483 -0.08209,0.41301c-0.04065,0.15769 -0.09313,0.3345 -0.17207,0.52034c-0.0324,0.09635 -0.07936,0.18985 -0.13142,0.2862c-0.05333,0.09429 -0.09356,0.20253 -0.16424,0.29524c-0.06668,0.09556 -0.13494,0.19385 -0.2052,0.29451c-0.07542,0.09629 -0.16698,0.18269 -0.25265,0.2774c-0.08324,0.09829 -0.18117,0.18311 -0.28808,0.26041c-0.10539,0.07888 -0.20569,0.16922 -0.31933,0.24021c-0.23724,0.12165 -0.46573,0.28535 -0.72864,0.36022l-0.38364,0.14228c-0.12942,0.04047 -0.26327,0.05989 -0.39347,0.08998c-0.13184,0.02736 -0.26211,0.05394 -0.39117,0.08045c-0.12984,0.01432 -0.25853,0.01826 -0.38522,0.02658c-0.25338,-0.00121 -0.5005,0.03367 -0.729,-0.00874c-0.22971,-0.02615 -0.44602,-0.05388 -0.64497,-0.08282c-0.19968,-0.01784 -0.37418,-0.08798 -0.53205,-0.12444c-0.15745,-0.04162 -0.29287,-0.08088 -0.40415,-0.11692c-0.22261,-0.06777 -0.34693,-0.11334 -0.34693,-0.11334l0.00868,-0.03847c0,0 0.13458,0.00079 0.36508,0.01468c0.11564,0.00437 0.25459,0.01462 0.41325,0.03009c0.15866,0.01031 0.33589,0.03847 0.53126,0.03331c0.19458,0.00079 0.40458,0.00595 0.62519,0.01468c0.22182,0.01863 0.45196,-0.0111 0.69114,-0.01984c0.11959,-0.00394 0.24233,-0.00158 0.36429,-0.00989c0.12159,-0.01705 0.24355,-0.03452 0.3675,-0.05236c0.12274,-0.01978 0.25101,-0.02773 0.37339,-0.05703l0.36429,-0.1066c0.25143,-0.05473 0.46458,-0.19543 0.69466,-0.29488c0.10891,-0.06025 0.20526,-0.13876 0.3075,-0.20611c0.10418,-0.0662 0.2001,-0.13991 0.2822,-0.2271c0.08446,-0.08403 0.17565,-0.15976 0.25143,-0.24652c0.07184,-0.0904 0.14246,-0.17875 0.21115,-0.26478c0.07378,-0.08282 0.1188,-0.18233 0.1768,-0.26909c0.05685,-0.08761 0.10855,-0.17438 0.14647,-0.26436c0.08956,-0.17322 0.15314,-0.34008 0.20441,-0.4911c0.05012,-0.15059 0.08525,-0.28571 0.11012,-0.39711c0.05054,-0.22395 0.05807,-0.35513 0.05807,-0.35513z" fill="#2b535a" stroke="none" stroke-width="1"/><path d="M256.2638,201.07829c0,0.25999 -0.272,0.47041 -0.60826,0.47041c-0.33668,0 -0.60862,-0.21042 -0.60862,-0.47041c0,-0.26005 0.27194,-0.47047 0.60862,-0.47047c0.33626,0 0.60826,0.21042 0.60826,0.47047" fill="#2b535a" stroke="none" stroke-width="1"/><path d="M258.73063,201.07829c0,0.25999 -0.27194,0.47041 -0.60826,0.47041c-0.33662,0 -0.60862,-0.21042 -0.60862,-0.47041c0,-0.26005 0.272,-0.47047 0.60862,-0.47047c0.33632,0 0.60826,0.21042 0.60826,0.47047" fill="#2b535a" stroke="none" stroke-width="1"/><path d="M240.94922,199.40192c0,0 -1.7422,-2.13033 -0.1796,-5.15239c0,0 1.78995,1.55247 0.1796,5.15239" fill="#1a383b" stroke="none" stroke-width="1"/><path d="M237.32679,209.33252c0.32048,0.09429 0.59048,0.25878 0.84543,0.44426l-0.19258,0.03173c0.17486,-0.2362 0.36629,-0.46015 0.62167,-0.63853c-0.08409,0.30082 -0.2325,0.55571 -0.3979,0.79823l-0.07851,0.11498l-0.11407,-0.08282c-0.25459,-0.18554 -0.49498,-0.39159 -0.68404,-0.66784" fill="#2b535a" stroke="none" stroke-width="1"/><path d="M240.01957,213.72685c0.32048,0.09435 0.59042,0.25884 0.84543,0.44432l-0.19264,0.03173c0.17486,-0.23627 0.36629,-0.46015 0.62167,-0.63853c-0.08409,0.30082 -0.2325,0.55565 -0.39784,0.79823l-0.07857,0.11498l-0.11407,-0.08288c-0.25459,-0.18548 -0.49492,-0.39159 -0.68398,-0.66784" fill="#2b535a" stroke="none" stroke-width="1"/><path d="M240.14711,219.99128c0.32048,0.09435 0.59048,0.25884 0.84543,0.44432l-0.19258,0.03173c0.1748,-0.23627 0.36629,-0.46015 0.62161,-0.63853c-0.08403,0.30082 -0.23244,0.55565 -0.39784,0.79823l-0.07851,0.11492l-0.11407,-0.08282c-0.25459,-0.18548 -0.49498,-0.39159 -0.68404,-0.66784" fill="#2b535a" stroke="none" stroke-width="1"/><path d="M242.75737,223.76193c0.32048,0.09429 0.59048,0.25878 0.84543,0.44426l-0.19264,0.03173c0.17486,-0.2362 0.36629,-0.46015 0.62167,-0.63853c-0.08403,0.30082 -0.23244,0.55571 -0.39784,0.79823l-0.07857,0.11498l-0.11407,-0.08288c-0.25453,-0.18548 -0.49492,-0.39153 -0.68398,-0.66778" fill="#2b535a" stroke="none" stroke-width="1"/><path d="M240.65665,229.21951c0.1563,0.29651 0.22735,0.60522 0.27273,0.91794l-0.1563,-0.11613c0.29014,-0.0392 0.58338,-0.05825 0.88888,0.00158c-0.27352,0.14944 -0.55851,0.22037 -0.84744,0.27073l-0.13573,0.02415l-0.02057,-0.14028c-0.04575,-0.31271 -0.06668,-0.62901 -0.00158,-0.95798" fill="#2b535a" stroke="none" stroke-width="1"/><path d="M241.79799,234.70263c0.11759,0.31393 0.14841,0.62943 0.15393,0.9453l-0.14095,-0.13518c0.29287,-0.00158 0.58696,0.01747 0.88214,0.11577c-0.29045,0.11291 -0.58253,0.14701 -0.87504,0.15969l-0.13852,0.00637l-0.00237,-0.14192c-0.0051,-0.31551 0.0142,-0.63216 0.1208,-0.95004" fill="#2b535a" stroke="none" stroke-width="1"/><path d="M235.83858,237.0776c-0.22219,0.25046 -0.48624,0.42448 -0.76255,0.57665l0.05412,-0.18821c0.13773,0.25956 0.25696,0.52908 0.30786,0.83742c-0.23408,-0.20526 -0.39984,-0.44905 -0.54746,-0.70309l-0.06984,-0.12007l0.12353,-0.0682c0.27625,-0.15181 0.56439,-0.28141 0.89434,-0.3345" fill="#2b535a" stroke="none" stroke-width="1"/><path d="M235.42423,231.25561c-0.24901,0.22352 -0.53084,0.36659 -0.82213,0.4863l0.07457,-0.18075c0.10776,0.27352 0.19622,0.55493 0.21157,0.86679c-0.20999,-0.23062 -0.34693,-0.49182 -0.46495,-0.76098l-0.05564,-0.12717l0.13027,-0.05351c0.29166,-0.11929 0.59242,-0.21521 0.92631,-0.23068" fill="#2b535a" stroke="none" stroke-width="1"/><path d="M229.57318,229.84015c-0.31617,0.10824 -0.63113,0.1296 -0.94567,0.12529l0.13888,-0.13676c-0.00746,0.29409 -0.03549,0.58775 -0.14204,0.88147c-0.10381,-0.29488 -0.12833,-0.58896 -0.13227,-0.88305l-0.00194,-0.13913l0.14089,0.002c0.3146,0.00394 0.62913,0.03367 0.94215,0.15017" fill="#2b535a" stroke="none" stroke-width="1"/><path d="M230.52213,223.89505c-0.31611,0.10824 -0.63107,0.12966 -0.94567,0.12529l0.13894,-0.13676c-0.00752,0.29409 -0.03556,0.58775 -0.1421,0.88147c-0.10381,-0.29488 -0.12827,-0.58896 -0.13221,-0.88305l-0.002,-0.13913l0.14095,0.002c0.31453,0.00394 0.62913,0.03367 0.94209,0.15017" fill="#2b535a" stroke="none" stroke-width="1"/><path d="M225.10853,223.89505c-0.31617,0.10824 -0.63113,0.12966 -0.94567,0.12529l0.13888,-0.13676c-0.00746,0.29409 -0.03549,0.58775 -0.1421,0.88147c-0.10375,-0.29488 -0.12827,-0.58896 -0.13221,-0.88305l-0.00194,-0.13913l0.14089,0.002c0.3146,0.00394 0.62913,0.03367 0.94215,0.15017" fill="#2b535a" stroke="none" stroke-width="1"/><path d="M224.77513,217.56219c-0.28456,0.17559 -0.5869,0.2663 -0.89519,0.33213l0.10582,-0.16449c0.05758,0.28851 0.09471,0.58144 0.05521,0.89136c-0.16576,-0.26436 -0.25495,-0.54613 -0.32364,-0.8319l-0.03234,-0.13518l0.13816,-0.02931c0.30786,-0.06577 0.62082,-0.1066 0.95198,-0.06262" fill="#2b535a" stroke="none" stroke-width="1"/><path d="M218.55324,214.00359c-0.21946,0.25289 -0.48151,0.43006 -0.75545,0.58538l0.05169,-0.189c0.14052,0.25799 0.26327,0.52671 0.31739,0.83427c-0.23687,-0.20253 -0.40536,-0.44468 -0.55578,-0.69715l-0.07062,-0.11935l0.12232,-0.06935c0.27437,-0.15496 0.5613,-0.28772 0.89045,-0.34481" fill="#2b535a" stroke="none" stroke-width="1"/><path d="M215.94188,219.32422c-0.08962,0.32303 -0.24949,0.59606 -0.43024,0.8549l-0.03434,-0.19264c0.2376,0.17165 0.46337,0.36107 0.64454,0.61511c-0.30076,-0.08003 -0.5565,-0.22553 -0.80084,-0.38838l-0.11528,-0.07693l0.0813,-0.11571c0.18081,-0.25884 0.38249,-0.50256 0.65486,-0.69636" fill="#2b535a" stroke="none" stroke-width="1"/><path d="M208.35858,217.13079c0.23244,0.241 0.38601,0.51804 0.51664,0.80539l-0.18275,-0.06777c0.26763,-0.11892 0.54467,-0.21879 0.85453,-0.24694c-0.2214,0.21958 -0.47562,0.36781 -0.73889,0.49698l-0.12432,0.06104l-0.05843,-0.12918c-0.13063,-0.28735 -0.23839,-0.58538 -0.26678,-0.91952" fill="#2b535a" stroke="none" stroke-width="1"/><path d="M208.15933,224.73612c0.26011,0.21005 0.4468,0.4661 0.61141,0.73519l-0.18985,-0.04478c0.25137,-0.15138 0.51385,-0.28456 0.81819,-0.35112c-0.193,0.24573 -0.42666,0.42405 -0.67257,0.58496l-0.11564,0.07572l-0.07378,-0.1205c-0.16503,-0.26909 -0.30829,-0.55129 -0.37776,-0.87947" fill="#2b535a" stroke="none" stroke-width="1"/><path d="M203.06834,229.44109c0.03628,0.33334 -0.01183,0.64685 -0.08446,0.95398l-0.10302,-0.16607c0.2842,0.07135 0.5636,0.16291 0.82571,0.33213c-0.30907,0.03689 -0.60037,-0.00316 -0.8873,-0.0634l-0.13536,-0.02852l0.03234,-0.13755c0.07305,-0.30756 0.17056,-0.60917 0.35209,-0.89058" fill="#2b535a" stroke="none" stroke-width="1"/><path d="M204.73882,236.16919c0.17056,0.28851 0.25538,0.5937 0.31617,0.90404l-0.16218,-0.10861c0.28808,-0.05309 0.58017,-0.08561 0.88845,-0.04083c-0.26606,0.16212 -0.54789,0.24694 -0.83403,0.31077l-0.13458,0.03052l-0.02761,-0.13913c-0.06001,-0.30992 -0.09556,-0.62507 -0.04623,-0.95677" fill="#2b535a" stroke="none" stroke-width="1"/><path d="M207.18684,232.62903c0.23444,0.239 0.39038,0.51488 0.52338,0.80102l-0.18354,-0.0662c0.26721,-0.12129 0.54309,-0.22316 0.85253,-0.25404c-0.21903,0.22152 -0.47247,0.37175 -0.73452,0.50293l-0.12353,0.06225l-0.06001,-0.12845c-0.133,-0.2865 -0.24276,-0.58338 -0.27431,-0.91751" fill="#2b535a" stroke="none" stroke-width="1"/><path d="M200.77498,234.12362c-0.18591,0.27868 -0.42314,0.48752 -0.67573,0.67658l0.02718,-0.19379c0.1725,0.23778 0.328,0.48867 0.42041,0.78713c-0.26053,-0.17122 -0.45827,-0.38959 -0.63902,-0.62106l-0.08567,-0.1094l0.11328,-0.08446c0.25259,-0.18864 0.5198,-0.3567 0.83955,-0.455" fill="#2b535a" stroke="none" stroke-width="1"/><path d="M198.66461,228.74073c-0.31611,0.10818 -0.63113,0.1296 -0.94567,0.12523l0.13894,-0.13676c-0.00752,0.29409 -0.03556,0.58781 -0.1421,0.88147c-0.10381,-0.29488 -0.12827,-0.58896 -0.13227,-0.88305l-0.00194,-0.13913l0.14089,0.002c0.3146,0.00394 0.62919,0.03367 0.94215,0.15023" fill="#2b535a" stroke="none" stroke-width="1"/><path d="M195.13775,233.80472c-0.30549,0.13591 -0.6173,0.18469 -0.93104,0.20848l0.12626,-0.14865c0.01857,0.2933 0.0162,0.5886 -0.06431,0.89021c-0.12905,-0.2842 -0.1796,-0.57513 -0.2092,-0.86758l-0.0142,-0.13834l0.14052,-0.01031c0.31417,-0.02415 0.62992,-0.02221 0.95198,0.0662" fill="#2b535a" stroke="none" stroke-width="1"/><path d="M193.82882,225.7711c-0.31617,0.10824 -0.63113,0.1296 -0.94573,0.12523l0.13894,-0.1367c-0.00752,0.29409 -0.03549,0.58775 -0.1421,0.88147c-0.10381,-0.29488 -0.12827,-0.58896 -0.13221,-0.88305l-0.002,-0.13913l0.14095,0.002c0.31453,0.00394 0.62913,0.03367 0.94215,0.15017" fill="#2b535a" stroke="none" stroke-width="1"/><path d="M192.78153,220.20418c-0.32364,0.08282 -0.63938,0.07888 -0.95277,0.04951l0.14956,-0.12523c-0.0304,0.29251 -0.08167,0.58344 -0.21115,0.86758c-0.08009,-0.3024 -0.08173,-0.59764 -0.06237,-0.89094l0.0091,-0.13876l0.14052,0.01311c0.31338,0.02894 0.62397,0.08361 0.9271,0.22474" fill="#2b535a" stroke="none" stroke-width="1"/><path d="M188.9934,224.88883c-0.31611,0.10818 -0.63113,0.1296 -0.94567,0.12523l0.13894,-0.13676c-0.00752,0.29409 -0.03556,0.58781 -0.1421,0.88147c-0.10381,-0.29488 -0.12827,-0.58896 -0.13227,-0.88305l-0.00194,-0.13913l0.14089,0.002c0.3146,0.00394 0.62919,0.03367 0.94215,0.15023" fill="#2b535a" stroke="none" stroke-width="1"/><path d="M188.5975,216.70213c-0.31611,0.10818 -0.63107,0.1296 -0.94567,0.12523l0.13894,-0.13676c-0.00752,0.29409 -0.03556,0.58781 -0.1421,0.88147c-0.10381,-0.29488 -0.12827,-0.58896 -0.13221,-0.88305l-0.002,-0.13913l0.14095,0.002c0.31453,0.00394 0.62913,0.03367 0.94209,0.15023" fill="#2b535a" stroke="none" stroke-width="1"/><path d="M182.67091,211.84583c-0.17523,0.28535 -0.40458,0.50335 -0.65006,0.70109l0.02051,-0.19458c0.18081,0.23147 0.34536,0.47599 0.44881,0.77087c-0.26684,-0.16127 -0.47204,-0.37218 -0.66153,-0.59685l-0.08962,-0.10588l0.10976,-0.08877c0.24549,-0.19774 0.50675,-0.37569 0.82213,-0.48588" fill="#2b535a" stroke="none" stroke-width="1"/><path d="M178.21457,214.63642c-0.01499,0.33492 -0.1097,0.63732 -0.22813,0.92983l-0.07615,-0.17996c0.26994,0.11419 0.53205,0.24773 0.76528,0.45463c-0.31102,-0.01074 -0.59279,-0.09471 -0.86716,-0.19816l-0.12942,-0.04915l0.05285,-0.13118c0.11886,-0.29251 0.26053,-0.57549 0.48272,-0.82602" fill="#2b535a" stroke="none" stroke-width="1"/><path d="M181.55948,219.38168c-0.21078,0.25999 -0.46652,0.44589 -0.73531,0.61038l0.04538,-0.19027c0.1492,0.25289 0.28062,0.51725 0.34499,0.8228c-0.24355,-0.19458 -0.41956,-0.43079 -0.57865,-0.67809l-0.07499,-0.11692l0.12038,-0.07336c0.26921,-0.16406 0.55098,-0.30634 0.8782,-0.37454" fill="#2b535a" stroke="none" stroke-width="1"/><path d="M171.53422,214.81001c0.23566,0.23784 0.39274,0.51251 0.52689,0.79865l-0.18348,-0.06541c0.26642,-0.12244 0.54188,-0.22589 0.85132,-0.25799c-0.21824,0.22273 -0.47083,0.37412 -0.73252,0.50651l-0.12359,0.06219l-0.05995,-0.1276c-0.13421,-0.28614 -0.24591,-0.58259 -0.27868,-0.91636" fill="#2b535a" stroke="none" stroke-width="1"/><path d="M172.06015,221.80847c0.25774,0.21321 0.44128,0.47126 0.60274,0.74235l-0.18906,-0.04678c0.25295,-0.14823 0.517,-0.27862 0.82171,-0.34123c-0.19537,0.24294 -0.43139,0.41896 -0.67888,0.57665l-0.1168,0.07451l-0.07226,-0.12165c-0.16182,-0.27109 -0.30149,-0.55487 -0.36744,-0.88384" fill="#2b535a" stroke="none" stroke-width="1"/><path d="M169.5773,228.572c0.27904,0.18469 0.48824,0.42169 0.67773,0.67415l-0.193,-0.02651c0.23602,-0.17438 0.48467,-0.33177 0.78148,-0.42648c-0.16892,0.26278 -0.38564,0.46252 -0.61457,0.64563l-0.10855,0.0864l-0.08446,-0.11298c-0.18942,-0.25247 -0.35877,-0.51998 -0.45864,-0.84022" fill="#2b535a" stroke="none" stroke-width="1"/><path d="M167.35232,235.36162c-0.0813,0.3254 -0.23444,0.60243 -0.40888,0.86558l-0.03907,-0.19179c0.24191,0.16607 0.47247,0.34954 0.65953,0.59885c-0.3027,-0.07251 -0.56202,-0.21163 -0.80994,-0.36823l-0.11722,-0.07372l0.07815,-0.11807c0.1745,-0.26278 0.36987,-0.51209 0.63744,-0.71262" fill="#2b535a" stroke="none" stroke-width="1"/><path d="M170.99671,232.59827c0.26448,0.2049 0.45591,0.45657 0.6264,0.72257l-0.19064,-0.04083c0.24828,-0.15618 0.50796,-0.29488 0.8103,-0.36744c-0.18748,0.24931 -0.41798,0.43285 -0.65995,0.59813l-0.11443,0.07845l-0.07621,-0.11929c-0.17049,-0.26557 -0.31927,-0.54498 -0.39547,-0.87158" fill="#2b535a" stroke="none" stroke-width="1"/><path d="M165.65538,231.8211c-0.28025,0.18227 -0.58102,0.27977 -0.8873,0.3527l0.10181,-0.16685c0.06395,0.28699 0.10776,0.57865 0.07499,0.88942c-0.17165,-0.26041 -0.26678,-0.53982 -0.34178,-0.82402l-0.03513,-0.13433l0.13694,-0.03252c0.30628,-0.07293 0.61851,-0.12086 0.95046,-0.0844" fill="#2b535a" stroke="none" stroke-width="1"/><path d="M161.37537,231.58344c-0.31453,0.11255 -0.62913,0.13791 -0.94409,0.13755l0.13737,-0.13876c-0.00358,0.29409 -0.02767,0.58818 -0.13063,0.88305c-0.10739,-0.2933 -0.13621,-0.58696 -0.14368,-0.88105l-0.00394,-0.13913l0.14089,0.00042c0.31496,0 0.62956,0.02536 0.94409,0.13791" fill="#2b535a" stroke="none" stroke-width="1"/><path d="M159.05652,226.20012c-0.31453,0.11261 -0.62913,0.13797 -0.94409,0.13755l0.13737,-0.1387c-0.00358,0.29409 -0.02767,0.58818 -0.13063,0.88305c-0.10739,-0.2933 -0.13621,-0.58702 -0.14368,-0.88111l-0.00394,-0.13907l0.14089,0.00036c0.31496,0 0.62956,0.02536 0.94409,0.13791" fill="#2b535a" stroke="none" stroke-width="1"/><path d="M155.84965,223.08341c-0.3146,0.11255 -0.62913,0.13791 -0.94415,0.13755l0.13737,-0.13876c-0.00352,0.29409 -0.02761,0.58818 -0.13063,0.88305c-0.10733,-0.2933 -0.13615,-0.58696 -0.14368,-0.88105l-0.00394,-0.13913l0.14089,0.00042c0.31502,0 0.62956,0.02536 0.94415,0.13791" fill="#2b535a" stroke="none" stroke-width="1"/><path d="M154.90568,219.66382c-0.33274,-0.02852 -0.62956,-0.1367 -0.91569,-0.26751l0.18196,-0.06935c-0.12432,0.26636 -0.268,0.52398 -0.48351,0.74945c0.0233,-0.31187 0.11844,-0.59091 0.23287,-0.86163l0.05406,-0.12839l0.12827,0.05904c0.2862,0.13081 0.56209,0.28499 0.80205,0.5184" fill="#2b535a" stroke="none" stroke-width="1"/><path d="M152.5687,216.08149c-0.31453,0.11255 -0.62913,0.13791 -0.94409,0.13755l0.13737,-0.13876c-0.00358,0.29409 -0.02767,0.58818 -0.13063,0.88305c-0.10739,-0.2933 -0.13621,-0.58696 -0.14368,-0.88105l-0.00394,-0.13913l0.14089,0.00042c0.31496,0 0.62956,0.02536 0.94409,0.13791" fill="#2b535a" stroke="none" stroke-width="1"/><path d="M150.79853,212.60292c-0.27983,0.00516 -0.53047,-0.06583 -0.7736,-0.15581l0.18748,-0.12165c-0.01499,0.2683 -0.0537,0.53509 -0.17802,0.79744c-0.09708,-0.27346 -0.10855,-0.5434 -0.09671,-0.81133l0.00874,-0.19616l0.17875,0.07451c0.23924,0.09951 0.47132,0.21837 0.67336,0.41301" fill="#2b535a" stroke="none" stroke-width="1"/><path d="M238.11889,204.10775c0.32048,0.09429 0.59048,0.25878 0.84543,0.44426l-0.19264,0.03173c0.17486,-0.2362 0.36629,-0.46015 0.62167,-0.63853c-0.08403,0.30082 -0.23244,0.55571 -0.39784,0.79823l-0.07857,0.11498l-0.11407,-0.08288c-0.25453,-0.18548 -0.49492,-0.39159 -0.68398,-0.66778" fill="#2b535a" stroke="none" stroke-width="1"/></g></g></svg>