<svg version="1.1" xmlns="http://www.w3.org/2000/svg" xmlns:xlink="http://www.w3.org/1999/xlink" width="642.29683" height="513.24994" viewBox="0,0,642.29683,513.24994"><g transform="translate(85.29074,102.99266)"><g data-paper-data="{&quot;isPaintingLayer&quot;:true}" fill-rule="nonzero" stroke="none" stroke-linecap="butt" stroke-linejoin="miter" stroke-miterlimit="10" stroke-dasharray="" stroke-dashoffset="0" style="mix-blend-mode: normal"><path d="M414.78142,380.61137c-0.87487,0.08048 -0.08892,1.90146 -0.68767,2.54439c-2.57955,2.76988 -5.33513,5.49633 -8.59375,7.42188c-3.15369,1.86354 -7.05578,1.97259 -10.59048,2.93405c-2.217,0.60304 -4.28472,2.33245 -6.56224,3.00056c-19.63267,5.75928 -42.09229,1.62585 -61.72511,-1.03886c-10.98109,-1.49043 -28.09534,-2.92009 -39.70258,-5.29241c-12.95606,-2.648 -25.85791,-5.56474 -38.84388,-8.06194c-1.22028,-0.23466 -2.56215,-0.56004 -3.72585,-0.1242c-2.07779,0.7782 -2.84523,3.41297 -4.41242,4.98354c-2.03197,2.03635 -4.81453,3.84732 -7.45949,5.06807c-7.12608,3.28896 -24.49125,3.56004 -29.82197,4.39373c-41.50936,6.49185 -83.256,16.42271 -125.62353,13.18489c-12.74849,-0.97427 -25.70565,-1.84873 -38.43209,-3.07794c-11.3216,-1.09352 -22.67291,-3.12297 -34.02429,-3.84452c-8.91513,-0.56669 -17.86776,-0.16443 -26.79937,0c-6.32097,0.11637 -13.00538,5.46416 -19.17424,4.15576c-3.70265,-0.78532 -7.39584,-1.65684 -11.00565,-2.79508c-6.5935,-2.07907 -12.55497,-14.28882 -12.96912,-21.18499c-0.59154,-9.84994 4.57302,-18.23193 11.72671,-24.48769c5.28764,-4.62394 10.54537,-9.28182 15.7939,-13.95015c-1.48921,-0.2959 -3.507,-0.32195 -4.58911,-1.05861c-2.47945,-1.6879 -7.07769,-9.96404 -8.27627,-12.47617c-0.62489,-1.30972 -0.30097,-3.06791 -1.24207,-4.17253c-2.59329,-3.04387 -7.89824,1.61084 -11.89648,1.54475c-1.02113,-0.01688 -1.7449,-1.09148 -2.70602,-1.43681c-2.1392,-0.76862 -4.54459,-0.8237 -6.55224,-1.88969c-1.09461,-0.5812 -1.47578,-2.00948 -2.3825,-2.85436c-2.62183,-2.44303 -8.79929,-9.61049 -9.46865,-13.56665c-3.67244,-21.70513 24.69387,-42.03243 35.70826,-53.60934c1.23858,-1.30184 4.17161,-1.64567 4.14844,-3.44243c-0.07814,-6.06151 -1.70611,-9.50133 0.38191,-16.01255c0.24511,-0.76434 1.13663,-1.14693 1.5857,-1.81223c4.47768,-6.63359 7.41903,-9.87807 13.61132,-15.0068c2.83163,-2.34528 -7.55544,-1.44261 -10.33809,-3.8458c-6.27585,-5.42005 -13.41641,-13.01424 -11.26735,-22.5347c0.23527,-1.04225 2.43835,-10.06395 4.0411,-12.71969c6.66846,-11.04957 18.81294,-18.79966 25.17281,-30.13101c1.14555,-2.04102 -2.14514,-4.17157 -2.97649,-6.35947c-0.46481,-1.22325 -0.71325,-2.52668 -0.89258,-3.82292c-2.20435,-15.93413 -5.88271,-31.75731 -6.36575,-47.83594c-0.12251,-4.07786 1.10401,-11.09247 3.23004,-14.7223c0.05231,-0.08931 3.86843,-3.83928 4.08758,-4.69315c1.16373,-4.53426 -0.24394,-9.17471 2.00064,-13.6223c1.09963,-2.1789 2.26358,-4.34511 3.69993,-6.31834c0.69081,-0.94902 3.16146,-1.02234 2.0459,-3.08812c-11.82835,-21.90338 -31.58881,-47.39984 -16.26913,-72.79257c4.52802,-7.5053 16.18074,-13.41354 24.25994,-14.96771c3.1268,-0.60149 6.39002,-0.84139 9.55405,-1.03837c1.36552,-0.08501 3.10017,0.77755 4.10158,-0.15468c1.70314,-1.58548 2.24682,-7.37162 3.35148,-9.45313c1.08365,-2.04192 3.47376,-3.05164 5.24853,-4.53282c1.77477,-1.48118 3.19576,-3.65211 5.39859,-4.35301c4.42184,-1.40695 14.89461,-2.70423 19.48764,-1.24281c4.70978,1.49857 11.14172,6.13444 14.05274,10.12864c1.55688,2.13619 2.82987,10.86054 4.17252,11.91424c1.56429,1.22764 5.925,1.2915 7.63933,1.56955c0.19809,0.03213 0.33526,0.47158 0.49226,0.34659c19.37011,-15.41986 38.66294,-31.44053 58.00438,-46.89633c10.29762,-8.22886 20.42662,-19.88552 34.23897,-20.24652c1.23605,-0.03231 6.17835,-0.67202 7.95911,0.35097c3.50364,2.01273 6.83287,4.32864 10.07735,6.73696c1.94505,1.44377 3.03766,5.08867 3.95386,6.88265c1.06645,2.08817 2.58149,3.94372 3.5039,6.09939c2.55498,5.97095 -3.16717,18.01192 -7.45777,22.3733c-10.24845,10.41752 -20.65287,20.68048 -31,31c-2.39352,2.38714 -9.00257,7.14763 -8.39137,7.66676c3.66301,3.1112 10.08665,1.13004 14.38123,-1.02723c9.58105,-4.8128 31.90454,-27.10918 49.53324,-29.44743c7.43979,-0.9868 26.69478,-2.79105 34.25235,3.03648c2.78479,2.1473 5.9735,5.4364 7.42188,8.59375c0.46498,1.01363 -0.06014,2.8897 1.01439,3.18808c2.74472,0.76216 9.01718,-0.90132 12.68309,-0.55538c7.42469,0.70066 14.79726,2.20206 22.25426,2.30216c14.45781,0.19408 28.89937,-1.0629 43.35403,-1.42144c3.77535,-0.09365 7.70451,2.08921 11.21924,1.95761c16.88493,-0.63222 33.75207,-1.74306 50.59929,-3.03596c11.0786,-0.8502 25.66128,-4.34042 36.76132,-1.52828c7.16505,1.81523 10.54586,3.9733 16.25011,8.91344c1.43768,1.24509 0.14731,4.99143 2.01753,5.33705c20.08498,3.71171 36.73492,-4.69948 50.70001,12.86231c0.59829,0.75238 0.21129,1.94762 0.62522,2.8152c0.41393,0.86757 1.58646,1.31874 1.79487,2.25714c1.47885,6.65885 1.1194,10.64273 -0.65849,16.06629c3.66008,6.51901 5.08107,15.49491 6.65803,21.84402c1.7981,7.23944 2.86296,14.2694 3.77821,21.27083c3.80481,4.53459 6.58524,10.19053 7.60238,15.76575c0.56778,3.11215 -1.12064,8.61339 -3.02798,12.6149c0.13634,0.71405 0.24826,1.43491 0.32149,2.16725c0.98853,9.8853 0.27621,26.73818 0.18487,31.72914c15.32869,10.64667 16.10535,27.99648 3.38328,40.3747l25.2194,1.62706c4.49461,0.74424 9.00716,1.94023 13.06631,4.00874c0.86298,0.43977 1.03606,1.65018 1.69478,2.36027c1.78322,1.92229 4.08055,3.38421 5.60987,5.51405c1.20718,1.6812 1.72149,8.14535 1.92545,9.52117c0.20396,1.37581 1.58709,7.71117 0.91957,9.67028c-0.84566,2.48192 -2.62007,4.54745 -3.76891,6.9044c-0.42438,0.87065 -0.23887,2.07922 -0.93715,2.75043c-11.29353,10.85576 -36.41938,17.97823 -50.3759,22.45247c5.531,14.91012 11.10711,29.80299 16.88726,44.61779c2.31393,5.93071 5.41352,11.52449 8.0437,17.32188c2.72197,5.99971 4.76268,15.49932 6.18369,20.04698c1.91628,6.13269 4.33653,12.13233 5.72356,18.40594c1.80471,8.16283 0.54933,16.71745 0.41823,25.07637c-0.22928,14.61913 -10.33341,24.24967 -25,25c-3.39751,0.17381 -6.45715,-2.87701 -9.85235,-2.6628c-1.93329,0.12198 -7.3355,5.87632 -8.96731,7.02348c-1.96225,1.37946 -5.8113,1.27298 -7.75329,1.56912c-2.88707,0.44026 -7.39056,2.18067 -10.38623,0.50633c-3.3296,1.64162 -7.07751,2.56387 -11.04082,2.56387c-17.39404,0 -29.96348,-0.04663 -51.21858,1.90874z" fill="#000000" stroke-width="0.5"/><text transform="translate(96.4982,201.51875) scale(1.86511,1.86511)" font-size="40" xml:space="preserve" fill="#ffffff" fill-rule="nonzero" stroke="none" stroke-width="1" stroke-linecap="butt" stroke-linejoin="miter" stroke-miterlimit="10" stroke-dasharray="" stroke-dashoffset="0" font-family="Sans Serif" font-weight="normal" text-anchor="start" style="mix-blend-mode: normal"><tspan x="0" dy="0">The End</tspan></text></g></g></svg>